<svg width="24" height="24" viewBox="0 0 24 24" fill="none" xmlns="http://www.w3.org/2000/svg">
<path d="M9.05882 12C9.05882 13.9492 7.47865 15.5294 5.52941 15.5294C3.58017 15.5294 2 13.9492 2 12C2 10.0508 3.58017 8.47059 5.52941 8.47059C7.47865 8.47059 9.05882 10.0508 9.05882 12Z" fill="white"/>
<path d="M15.5294 12C15.5294 13.9492 13.9492 15.5294 12 15.5294C10.0508 15.5294 8.47059 13.9492 8.47059 12C8.47059 10.0508 10.0508 8.47059 12 8.47059C13.9492 8.47059 15.5294 10.0508 15.5294 12Z" fill="white"/>
<path d="M22 12C22 13.9492 20.4198 15.5294 18.4706 15.5294C16.5213 15.5294 14.9412 13.9492 14.9412 12C14.9412 10.0508 16.5213 8.47059 18.4706 8.47059C20.4198 8.47059 22 10.0508 22 12Z" fill="white"/>
<path d="M9.05882 18.4706C9.05882 20.4198 7.47865 22 5.52941 22C3.58017 22 2 20.4198 2 18.4706C2 16.5213 3.58017 14.9412 5.52941 14.9412C7.47865 14.9412 9.05882 16.5213 9.05882 18.4706Z" fill="white"/>
<path d="M15.5294 18.4706C15.5294 20.4198 13.9492 22 12 22C10.0508 22 8.47059 20.4198 8.47059 18.4706C8.47059 16.5213 10.0508 14.9412 12 14.9412C13.9492 14.9412 15.5294 16.5213 15.5294 18.4706Z" fill="white"/>
<path d="M22 18.4706C22 20.4198 20.4198 22 18.4706 22C16.5213 22 14.9412 20.4198 14.9412 18.4706C14.9412 16.5213 16.5213 14.9412 18.4706 14.9412C20.4198 14.9412 22 16.5213 22 18.4706Z" fill="white"/>
<path d="M9.05882 5.52941C9.05882 7.47865 7.47865 9.05882 5.52941 9.05882C3.58017 9.05882 2 7.47865 2 5.52941C2 3.58017 3.58017 2 5.52941 2C7.47865 2 9.05882 3.58017 9.05882 5.52941Z" fill="white"/>
<path d="M15.5294 5.52941C15.5294 7.47865 13.9492 9.05882 12 9.05882C10.0508 9.05882 8.47059 7.47865 8.47059 5.52941C8.47059 3.58017 10.0508 2 12 2C13.9492 2 15.5294 3.58017 15.5294 5.52941Z" fill="white"/>
<path d="M22 5.52941C22 7.47865 20.4198 9.05882 18.4706 9.05882C16.5213 9.05882 14.9412 7.47865 14.9412 5.52941C14.9412 3.58017 16.5213 2 18.4706 2C20.4198 2 22 3.58017 22 5.52941Z" fill="white"/>
</svg>
