<svg width="24" height="24" viewBox="0 0 24 24" fill="none" xmlns="http://www.w3.org/2000/svg">
<path d="M22 5.87602C22 7.121 20.4857 8.22888 18.132 8.93803C20.4857 9.64718 22 10.7551 22 12C22 13.245 20.4857 14.3529 18.1321 15.062C20.4857 15.7712 22 16.879 22 18.124C22 20.2646 17.5228 22 12 22C6.47715 22 2 20.2646 2 18.124C2 16.879 3.51428 15.7712 5.86788 15.062C3.51428 14.3529 2 13.245 2 12C2 10.7551 3.51434 9.64718 5.868 8.93803C3.51434 8.22888 2 7.121 2 5.87602C2 3.73536 6.47715 2 12 2C17.5228 2 22 3.73536 22 5.87602Z" fill="white"/>
</svg>
