<svg width="24" height="24" viewBox="0 0 24 24" fill="none" xmlns="http://www.w3.org/2000/svg">
<path d="M22 6.54545C22 9.05584 19.9649 11.0909 17.4545 11.0909C14.9442 11.0909 12.9091 9.05584 12.9091 6.54545C12.9091 4.03507 14.9442 2 17.4545 2C19.9649 2 22 4.03507 22 6.54545Z" fill="white"/>
<path d="M11.0909 17.4545C11.0909 19.9649 9.05584 21.9999 6.54545 21.9999C4.03507 21.9999 2 19.9649 2 17.4545C2 14.9441 4.03507 12.909 6.54545 12.909C9.05584 12.909 11.0909 14.9441 11.0909 17.4545Z" fill="white"/>
<path d="M2.90908 14.6404L14.1351 3.41441L20.5633 9.84265L9.33732 21.0686L2.90908 14.6404Z" fill="white"/>
<path d="M17.4545 21.9999C14.9442 21.9999 12.9091 19.9649 12.9091 17.4545C12.9091 14.9441 14.9442 12.909 17.4545 12.909C19.9649 12.909 22 14.9441 22 17.4545C22 19.9649 19.9649 21.9999 17.4545 21.9999Z" fill="white"/>
<path d="M6.54546 11.0909C4.03508 11.0909 2.00001 9.05584 2.00001 6.54545C2.00001 4.03507 4.03508 2 6.54546 2C9.05585 2 11.0909 4.03507 11.0909 6.54545C11.0909 9.05584 9.05585 11.0909 6.54546 11.0909Z" fill="white"/>
<path d="M9.35964 2.90903L20.5856 14.135L14.1574 20.5633L2.9314 9.33727L9.35964 2.90903Z" fill="white"/>
</svg>
