<svg width="24" height="24" viewBox="0 0 24 24" fill="none" xmlns="http://www.w3.org/2000/svg">
<path d="M12.4703 2.37151C12.3524 1.87616 11.6476 1.87616 11.5296 2.37151L10.2456 7.76462L5.52418 4.85903C5.09053 4.59217 4.59213 5.09055 4.85901 5.52424L7.76456 10.2456L2.37153 11.5296C1.87616 11.6476 1.87616 12.3524 2.37153 12.4704L7.76458 13.7544L4.85903 18.4758C4.59215 18.9094 5.09055 19.4078 5.52422 19.1409L10.2456 16.2354L11.5296 21.6285C11.6476 22.1238 12.3524 22.1238 12.4704 21.6285L13.7544 16.2354L18.4757 19.141C18.9094 19.4078 19.4078 18.9095 19.1409 18.4758L16.2354 13.7544L21.6285 12.4703C22.1238 12.3524 22.1238 11.6476 21.6285 11.5296L16.2354 10.2456L19.1409 5.5242C19.4078 5.09051 18.9094 4.59214 18.4757 4.85899L13.7543 7.76454L12.4703 2.37151Z" fill="white"/>
</svg>
