<svg width="32" height="32" viewBox="0 0 32 32" fill="none" xmlns="http://www.w3.org/2000/svg">
<rect width="32" height="32" rx="4" fill="#1C1D1F"/>
<path d="M22 19.75C22 21.4833 21.3917 22.9583 20.175 24.175C18.9583 25.3917 17.4833 26 15.75 26C14.0167 26 12.5417 25.3917 11.325 24.175C10.1083 22.9583 9.5 21.4833 9.5 19.75V10.5C9.5 9.25 9.9375 8.1875 10.8125 7.3125C11.6875 6.4375 12.75 6 14 6C15.25 6 16.3125 6.4375 17.1875 7.3125C18.0625 8.1875 18.5 9.25 18.5 10.5V19.25C18.5 20.0167 18.2333 20.6667 17.7 21.2C17.1667 21.7333 16.5167 22 15.75 22C14.9833 22 14.3333 21.7333 13.8 21.2C13.2667 20.6667 13 20.0167 13 19.25V10H15V19.25C15 19.4667 15.0708 19.6458 15.2125 19.7875C15.3542 19.9292 15.5333 20 15.75 20C15.9667 20 16.1458 19.9292 16.2875 19.7875C16.4292 19.6458 16.5 19.4667 16.5 19.25V10.5C16.4833 9.8 16.2375 9.20833 15.7625 8.725C15.2875 8.24167 14.7 8 14 8C13.3 8 12.7083 8.24167 12.225 8.725C11.7417 9.20833 11.5 9.8 11.5 10.5V19.75C11.4833 20.9333 11.8917 21.9375 12.725 22.7625C13.5583 23.5875 14.5667 24 15.75 24C16.9167 24 17.9083 23.5875 18.725 22.7625C19.5417 21.9375 19.9667 20.9333 20 19.75V10H22V19.75Z" fill="white"/>
</svg>
