<svg width="32" height="32" viewBox="0 0 32 32" fill="none" xmlns="http://www.w3.org/2000/svg">
<rect width="32" height="32" rx="4" fill="#1C1D1F"/>
<path d="M16 6.24658C13.6255 6.24668 11.3285 7.0917 9.51999 8.63043C7.71149 10.1692 6.50953 12.3012 6.12916 14.6451C5.74879 16.9889 6.21485 19.3917 7.44393 21.4233C8.67301 23.455 10.5849 24.9831 12.8375 25.7341C13.3375 25.8216 13.525 25.5216 13.525 25.2591C13.525 25.0216 13.5125 24.2341 13.5125 23.3966C11 23.8591 10.35 22.7841 10.15 22.2216C9.9281 21.6745 9.5763 21.1897 9.12503 20.8091C8.77503 20.6216 8.27503 20.1591 9.11252 20.1466C9.4323 20.1813 9.73901 20.2926 10.0067 20.471C10.2743 20.6494 10.495 20.8897 10.65 21.1716C10.7868 21.4173 10.9707 21.6336 11.1912 21.8081C11.4117 21.9826 11.6645 22.1118 11.9351 22.1885C12.2056 22.2651 12.4886 22.2876 12.7679 22.2547C13.0472 22.2218 13.3172 22.134 13.5625 21.9966C13.6058 21.4882 13.8324 21.0129 14.2 20.6591C11.975 20.4091 9.65003 19.5466 9.65003 15.7216C9.63597 14.7278 10.0027 13.7662 10.675 13.0341C10.3693 12.1703 10.4051 11.2224 10.775 10.3841C10.775 10.3841 11.6125 10.1216 13.525 11.4091C15.1613 10.9591 16.8887 10.9591 18.525 11.4091C20.4375 10.1091 21.275 10.3841 21.275 10.3841C21.645 11.2224 21.6808 12.1703 21.375 13.0341C22.0494 13.7649 22.4164 14.7273 22.4 15.7216C22.4 19.5591 20.0625 20.4091 17.8375 20.6591C18.0762 20.901 18.26 21.1914 18.3764 21.5106C18.4929 21.8298 18.5393 22.1704 18.5125 22.5091C18.5125 23.8466 18.5 24.9216 18.5 25.2591C18.5 25.5216 18.6875 25.8341 19.1875 25.7341C21.4362 24.977 23.3426 23.4453 24.5664 21.4126C25.7903 19.3799 26.2519 16.9784 25.8689 14.6368C25.4859 12.2952 24.2832 10.166 22.4755 8.62909C20.6678 7.09223 18.3727 6.24782 16 6.24658Z" fill="white"/>
</svg>
