<svg width="32" height="32" viewBox="0 0 32 32" fill="none" xmlns="http://www.w3.org/2000/svg">
<rect width="32" height="32" rx="4" fill="#1C1D1F"/>
<path d="M13.5 20.5L20.5 16L13.5 11.5V20.5ZM8 24C7.45 24 6.97917 23.8042 6.5875 23.4125C6.19583 23.0208 6 22.55 6 22V10C6 9.45 6.19583 8.97917 6.5875 8.5875C6.97917 8.19583 7.45 8 8 8H24C24.55 8 25.0208 8.19583 25.4125 8.5875C25.8042 8.97917 26 9.45 26 10V22C26 22.55 25.8042 23.0208 25.4125 23.4125C25.0208 23.8042 24.55 24 24 24H8ZM8 22H24V10H8V22Z" fill="white"/>
</svg>
