<svg width="498" height="132" viewBox="0 0 498 132" fill="none" xmlns="http://www.w3.org/2000/svg">
<path d="M70.9688 19.5938C70.6172 16.2656 67.5234 14.3438 63.4688 14.3438C58.9688 14.3438 56.0391 16.6875 56.0156 19.9219C56.0391 23.4844 60 24.8203 62.5781 25.4531L65.9531 26.3906C69.5859 27.3281 75.5625 29.4141 75.5625 35.7656C75.5625 41.2969 71.1094 45.5859 63.2344 45.6094C55.9219 45.5859 51.3984 41.8125 51 36.1875H55.3125C55.6641 39.9844 59.2031 41.7891 63.2344 41.7656C67.9219 41.7891 71.4375 39.375 71.4375 35.6719C71.4375 32.3672 68.2969 31.1016 64.7344 30.0938L60.5625 28.9688C55.2422 27.4219 51.9141 24.7031 51.9375 20.1094C51.9141 14.3672 57.0234 10.5938 63.6094 10.5938C70.1953 10.5938 74.9297 14.4375 75.0938 19.5938H70.9688ZM91.5 45.5156C84.5625 45.5391 79.875 40.2891 79.875 32.3906C79.875 24.4453 84.5625 19.2188 91.5 19.2188C98.4141 19.2188 103.055 24.4453 103.031 32.3906C103.055 40.2891 98.4141 45.5391 91.5 45.5156ZM83.9062 32.3906C83.9297 37.4766 86.3203 41.9531 91.5 41.9531C96.6328 41.9531 99 37.4766 99 32.3906C99 27.3281 96.6328 22.7812 91.5 22.7812C86.3203 22.7812 83.9297 27.3281 83.9062 32.3906ZM112.359 11.0625V45H108.328V11.0625H112.359ZM129.891 19.5469V22.9219H124.547V37.6875C124.523 40.9453 126.164 41.4844 127.875 41.4844C128.602 41.4844 129.68 41.4141 130.266 41.3906V45.1406C129.633 45.2344 128.648 45.3281 127.453 45.3281C124.055 45.3281 120.492 43.2188 120.469 38.7188V22.9219H116.625V19.5469H120.469V13.4531H124.547V19.5469H129.891ZM151.172 34.5469V19.5469H155.156V45H151.172V40.6875H150.891C149.695 43.2656 147.164 45.3281 143.344 45.3281C138.516 45.3281 135.07 42.1875 135.094 35.7188V19.5469H139.125V35.4375C139.125 39.0938 141.398 41.4609 144.656 41.4375C147.539 41.4609 151.148 39.3047 151.172 34.5469ZM161.625 45V19.5469H165.656V45H161.625ZM160.828 12.6562C160.805 11.1562 162.094 9.96094 163.641 9.98438C165.188 9.96094 166.477 11.1562 166.5 12.6562C166.477 14.1328 165.188 15.3281 163.641 15.3281C162.094 15.3281 160.805 14.1328 160.828 12.6562ZM182.484 45.5156C175.547 45.5391 170.859 40.2891 170.859 32.3906C170.859 24.4453 175.547 19.2188 182.484 19.2188C189.398 19.2188 194.039 24.4453 194.016 32.3906C194.039 40.2891 189.398 45.5391 182.484 45.5156ZM174.891 32.3906C174.914 37.4766 177.305 41.9531 182.484 41.9531C187.617 41.9531 189.984 37.4766 189.984 32.3906C189.984 27.3281 187.617 22.7812 182.484 22.7812C177.305 22.7812 174.914 27.3281 174.891 32.3906ZM203.344 29.7188V45H199.312V19.5469H203.203V23.5312H203.531C204.727 20.9297 207.117 19.2188 210.984 19.2188C216.141 19.2188 219.586 22.3594 219.562 28.8281V45H215.531V29.1094C215.531 25.1719 213.375 22.8281 209.766 22.8281C206.062 22.8281 203.344 25.3125 203.344 29.7188ZM261.75 21.75C260.766 17.0625 256.758 14.5312 252.281 14.5312C246.141 14.5312 241.383 19.2656 241.359 28.0312C241.383 36.7734 246.141 41.5078 252.281 41.5312C256.758 41.5078 260.742 39 261.75 34.3594H265.969C264.75 41.2969 259.172 45.4688 252.281 45.4688C243.562 45.4688 237.258 38.7656 237.281 28.0312C237.258 17.2969 243.562 10.5938 252.281 10.5938C259.148 10.5938 264.703 14.6953 265.969 21.75H261.75ZM275.391 29.7188V45H271.359V11.0625H275.391V23.5312H275.719C276.914 20.9062 279.188 19.2188 283.219 19.2188C288.422 19.2188 291.891 22.2891 291.891 28.8281V45H287.859V29.1094C287.859 25.1016 285.656 22.8281 282 22.8281C278.203 22.8281 275.391 25.3125 275.391 29.7188ZM297.141 37.7812C297.141 31.9453 302.297 30.6094 306.703 30.2812C308.344 30.1641 312.445 29.9297 313.594 29.9062V27.8438C313.594 24.6094 311.672 22.7344 307.828 22.7344C304.617 22.7344 302.672 24.2109 302.109 26.1562H297.891C298.406 22.0547 302.391 19.2188 308.016 19.2188C311.344 19.2188 317.602 20.2031 317.578 28.2188V45H313.594V41.5312H313.406C312.562 43.2422 310.242 45.5859 305.812 45.6094C300.984 45.5859 297.141 42.75 297.141 37.7812ZM301.172 37.9688C301.195 40.6641 303.422 42.0234 306.516 42C311.062 42.0234 313.594 38.9766 313.594 35.7656V33.2109C312.398 33.2812 308.391 33.5859 307.172 33.6562C303.516 33.8906 301.195 35.1797 301.172 37.9688ZM328.078 11.0625V45H324.047V11.0625H328.078ZM338.531 11.0625V45H334.5V11.0625H338.531ZM355.641 45.5156C348.281 45.5391 343.734 40.2891 343.734 32.4844C343.734 24.6562 348.352 19.2188 355.266 19.2188C360.609 19.2188 366.258 22.5 366.234 31.9219V33.6094H347.766C347.977 39 351.117 41.9531 355.641 41.9531C358.688 41.9531 360.609 40.6172 361.547 39.0469H365.859C364.664 42.9141 360.891 45.5391 355.641 45.5156ZM347.789 30.1875H362.156C362.133 25.9453 359.461 22.7812 355.266 22.7812C350.859 22.7812 348.07 26.25 347.789 30.1875ZM375.516 29.7188V45H371.484V19.5469H375.375V23.5312H375.703C376.898 20.9297 379.289 19.2188 383.156 19.2188C388.312 19.2188 391.758 22.3594 391.734 28.8281V45H387.703V29.1094C387.703 25.1719 385.547 22.8281 381.938 22.8281C378.234 22.8281 375.516 25.3125 375.516 29.7188ZM408.516 55.0781C402.352 55.0781 398.18 52.3828 397.734 47.6719H401.953C402.492 50.2734 404.906 51.5625 408.516 51.5625C412.875 51.5625 415.547 49.6641 415.547 45.4688V40.3125H415.219C414.352 41.7188 412.734 44.6016 407.812 44.625C401.625 44.6016 396.984 39.9375 396.984 31.9219C396.984 24.0938 401.461 19.2188 407.859 19.2188C412.805 19.2188 414.398 22.2188 415.312 23.5781H415.641V19.5469H419.578V45.7031C419.555 52.2656 414.727 55.0781 408.516 55.0781ZM401.062 32.0625C401.062 37.3359 403.547 41.0156 408.375 41.0156C413.039 41.0156 415.617 37.6641 415.641 32.0625C415.617 26.6016 413.109 22.8281 408.375 22.8281C403.477 22.8281 401.062 26.9297 401.062 32.0625ZM436.688 45.5156C429.328 45.5391 424.781 40.2891 424.781 32.4844C424.781 24.6562 429.398 19.2188 436.312 19.2188C441.656 19.2188 447.305 22.5 447.281 31.9219V33.6094H428.812C429.023 39 432.164 41.9531 436.688 41.9531C439.734 41.9531 441.656 40.6172 442.594 39.0469H446.906C445.711 42.9141 441.938 45.5391 436.688 45.5156ZM428.836 30.1875H443.203C443.18 25.9453 440.508 22.7812 436.312 22.7812C431.906 22.7812 429.117 26.25 428.836 30.1875Z" fill="white"/>
<path d="M9.36719 88.2188C8.88281 86.7656 7.78125 85.8438 6.16406 85.8438C4.16406 85.8438 2.57812 87.4219 2.57031 90.3438C2.57812 93.2578 4.16406 94.8359 6.25781 94.8438C8.16406 94.8359 9.48438 93.5703 9.50781 91.5625H6.55469V90.3281H10.8828V91.5469C10.8828 94.3516 8.95312 96.1562 6.25781 96.1562C3.23438 96.1562 1.20312 93.9219 1.21094 90.3438C1.20312 86.7656 3.25781 84.5312 6.16406 84.5312C8.55469 84.5312 10.3984 86.0312 10.8203 88.2188H9.36719ZM15.7891 96.1719C13.4766 96.1797 11.9141 94.4297 11.9141 91.7969C11.9141 89.1484 13.4766 87.4062 15.7891 87.4062C18.0938 87.4062 19.6406 89.1484 19.6328 91.7969C19.6406 94.4297 18.0938 96.1797 15.7891 96.1719ZM13.2578 91.7969C13.2656 93.4922 14.0625 94.9844 15.7891 94.9844C17.5 94.9844 18.2891 93.4922 18.2891 91.7969C18.2891 90.1094 17.5 88.5938 15.7891 88.5938C14.0625 88.5938 13.2656 90.1094 13.2578 91.7969ZM24.3672 96.1719C22.0547 96.1797 20.4922 94.4297 20.4922 91.7969C20.4922 89.1484 22.0547 87.4062 24.3672 87.4062C26.6719 87.4062 28.2188 89.1484 28.2109 91.7969C28.2188 94.4297 26.6719 96.1797 24.3672 96.1719ZM21.8359 91.7969C21.8438 93.4922 22.6406 94.9844 24.3672 94.9844C26.0781 94.9844 26.8672 93.4922 26.8672 91.7969C26.8672 90.1094 26.0781 88.5938 24.3672 88.5938C22.6406 88.5938 21.8438 90.1094 21.8359 91.7969ZM32.9141 99.3594C30.8594 99.3594 29.4688 98.4609 29.3203 96.8906H30.7266C30.9062 97.7578 31.7109 98.1875 32.9141 98.1875C34.3672 98.1875 35.2578 97.5547 35.2578 96.1562V94.4375H35.1484C34.8594 94.9062 34.3203 95.8672 32.6797 95.875C30.6172 95.8672 29.0703 94.3125 29.0703 91.6406C29.0703 89.0312 30.5625 87.4062 32.6953 87.4062C34.3438 87.4062 34.875 88.4062 35.1797 88.8594H35.2891V87.5156H36.6016V96.2344C36.5938 98.4219 34.9844 99.3594 32.9141 99.3594ZM30.4297 91.6875C30.4297 93.4453 31.2578 94.6719 32.8672 94.6719C34.4219 94.6719 35.2812 93.5547 35.2891 91.6875C35.2812 89.8672 34.4453 88.6094 32.8672 88.6094C31.2344 88.6094 30.4297 89.9766 30.4297 91.6875ZM39.5859 84.6875V96H38.2422V84.6875H39.5859ZM44.7891 96.1719C42.3359 96.1797 40.8203 94.4297 40.8203 91.8281C40.8203 89.2188 42.3594 87.4062 44.6641 87.4062C46.4453 87.4062 48.3281 88.5 48.3203 91.6406V92.2031H42.1641C42.2344 94 43.2812 94.9844 44.7891 94.9844C45.8047 94.9844 46.4453 94.5391 46.7578 94.0156H48.1953C47.7969 95.3047 46.5391 96.1797 44.7891 96.1719ZM42.1719 91.0625H46.9609C46.9531 89.6484 46.0625 88.5938 44.6641 88.5938C43.1953 88.5938 42.2656 89.75 42.1719 91.0625ZM53.6016 84.3906C55.7812 84.3984 57.3281 85.7266 57.3359 87.6562C57.3281 89.5938 55.7812 90.9141 53.6016 90.9219C51.4062 90.9141 49.8438 89.5938 49.8516 87.6562C49.8438 85.7266 51.4062 84.3984 53.6016 84.3906ZM49.1328 93.1875C51.6953 93.1953 55.2344 93.1719 58.3047 92.7188L58.3984 93.625C55.2188 94.2188 51.8047 94.2344 49.3047 94.2344L49.1328 93.1875ZM51.0547 87.6562C51.0469 88.9531 52.1172 89.8438 53.6016 89.8438C55.0703 89.8438 56.1406 88.9531 56.1328 87.6562C56.1406 86.3672 55.0703 85.4688 53.6016 85.4688C52.1172 85.4688 51.0469 86.3672 51.0547 87.6562ZM59.2266 97.2969V83.375H60.4453V97.2969H59.2266ZM77.3828 83.375V97.2656H76.1484V83.375H77.3828ZM66.0703 93.6562C69.8281 91.875 71.75 89.2109 72.0234 85.8906H66.7109V84.8906H73.2734C73.2578 88.8828 71.3984 92.4219 66.7422 94.6562L66.0703 93.6562ZM86.1953 83.9844C86.1875 85.7109 88.6953 87.0391 91.1953 87.3438L90.7578 88.2812C88.5703 87.9844 86.4297 87.0078 85.5547 85.5078C84.6641 87.0078 82.5156 87.9844 80.3516 88.2812L79.9297 87.3438C82.4219 87.0391 84.9297 85.7109 84.9297 83.9844V83.4531H86.1953V83.9844ZM79.2266 90.1875V89.1875H91.8828V90.1875H86.1484V91.5781H90.2578V94.7344H82.0078V96.1406H90.6797V97.1094H80.7891V93.8125H89.0547V92.5469H80.7578V91.5781H84.9297V90.1875H79.2266ZM98.8828 83.625C101.969 83.625 103.781 84.4766 103.789 86.0156C103.781 87.5938 101.969 88.4453 98.8828 88.4531C95.7812 88.4453 93.9609 87.5938 93.9609 86.0156C93.9609 84.4766 95.7812 83.625 98.8828 83.625ZM92.5547 90.3906V89.3906H105.211V90.3906H92.5547ZM94.0859 92.5312V91.5938H103.586V94.7031H95.3359V96.1406H104.008V97.1094H94.1172V93.7969H102.383V92.5312H94.0859ZM95.2422 86.0156C95.2266 86.9844 96.5781 87.5156 98.8828 87.5156C101.188 87.5156 102.531 86.9844 102.539 86.0156C102.531 85.1016 101.188 84.5547 98.8828 84.5469C96.5781 84.5547 95.2266 85.1016 95.2422 86.0156ZM120.242 83.375V86.9375H122.32V87.9844H120.242V91.5781H119.008V83.375H120.242ZM109.336 90.3281C110.445 90.3281 111.742 90.3281 113.102 90.2891V89.4297C111.469 89.2969 110.438 88.6484 110.445 87.5938C110.438 86.4531 111.719 85.7891 113.695 85.7969C115.672 85.7891 116.945 86.4531 116.961 87.5938C116.945 88.6406 115.938 89.2891 114.32 89.4297V90.2422C115.617 90.1797 116.93 90.0781 118.148 89.9062L118.258 90.7344C115.258 91.2266 111.922 91.25 109.477 91.25L109.336 90.3281ZM109.68 85.3281V84.4375H113.102V83.25H114.32V84.4375H117.727V85.3281H109.68ZM111.195 93.0781V92.2031H120.242V95H112.445V96.2344H120.773V97.1094H111.227V94.1719H119.023V93.0781H111.195ZM111.617 87.5938C111.609 88.2188 112.414 88.6172 113.695 88.625C114.977 88.6172 115.789 88.2188 115.789 87.5938C115.789 86.9844 114.977 86.6172 113.695 86.6094C112.414 86.6172 111.609 86.9844 111.617 87.5938ZM135.383 90.25V91.2656H122.727V90.25H125.867V88.2891C124.758 87.8594 124.133 87.1562 124.133 86.2188C124.133 84.5859 126.008 83.6484 129.055 83.6406C132.078 83.6484 133.953 84.5859 133.961 86.2188C133.953 87.1484 133.336 87.8516 132.242 88.2891V90.25H135.383ZM124.258 94.7812C124.25 93.1953 126.039 92.3203 129.055 92.3281C132.031 92.3203 133.82 93.1953 133.836 94.7812C133.82 96.3672 132.031 97.2344 129.055 97.2344C126.039 97.2344 124.25 96.3672 124.258 94.7812ZM125.398 86.2188C125.391 87.2344 126.781 87.8203 129.055 87.8281C131.305 87.8203 132.703 87.2344 132.711 86.2188C132.703 85.2188 131.305 84.6094 129.055 84.6094C126.781 84.6094 125.391 85.2188 125.398 86.2188ZM125.508 94.7812C125.492 95.7266 126.828 96.2891 129.055 96.2812C131.258 96.2891 132.594 95.7266 132.602 94.7812C132.594 93.8359 131.258 93.2812 129.055 93.2656C126.828 93.2812 125.492 93.8359 125.508 94.7812ZM127.086 90.25H131.023V88.6172C130.438 88.7266 129.781 88.7812 129.055 88.7812C128.328 88.7812 127.672 88.7266 127.086 88.625V90.25ZM146.805 83.375V89.1094H149.133V90.125H146.805V97.2656H145.586V83.375H146.805ZM135.977 86.625V85.6094H139.555V83.5469H140.773V85.6094H144.242V86.625H135.977ZM136.773 90.9688C136.766 89.0938 138.203 87.7812 140.18 87.7812C142.141 87.7812 143.57 89.0938 143.586 90.9688C143.57 92.8516 142.141 94.1562 140.18 94.1562C138.203 94.1562 136.766 92.8516 136.773 90.9688ZM137.945 90.9688C137.938 92.2344 138.883 93.125 140.18 93.1094C141.461 93.125 142.398 92.2344 142.414 90.9688C142.398 89.7109 141.461 88.8047 140.18 88.8125C138.883 88.8047 137.938 89.7109 137.945 90.9688ZM153.117 84.4531C154.391 84.4609 155.43 85.2031 156.031 86.4844H159.68V83.375H160.898V97.2969H159.68V91.9062H156.117C155.539 93.3125 154.461 94.1328 153.117 94.125C151.062 94.1328 149.625 92.2578 149.633 89.2969C149.625 86.3438 151.062 84.4609 153.117 84.4531ZM150.805 89.2969C150.812 91.5547 151.75 93.0391 153.117 93.0312C154.477 93.0391 155.43 91.5547 155.43 89.2969C155.43 87.0391 154.477 85.5547 153.117 85.5469C151.75 85.5547 150.812 87.0391 150.805 89.2969ZM156.383 87.5156C156.516 88.0547 156.586 88.6484 156.586 89.2969C156.586 89.8672 156.531 90.4062 156.43 90.8906H159.68V87.5156H156.383ZM174.32 84.6875H175.727V92.1719C175.727 94.5 173.984 96.1953 171.32 96.2031C168.648 96.1953 166.914 94.5 166.914 92.1719V84.6875H168.32V92.0625C168.312 93.7031 169.453 94.8828 171.32 94.8906C173.188 94.8828 174.312 93.7031 174.32 92.0625V84.6875ZM186.711 84.6875V96H185.367L179.242 87.1875H179.133V96H177.727V84.6875H179.086L185.211 93.5156H185.32V84.6875H186.711ZM192.57 84.3906C194.75 84.3984 196.297 85.7266 196.305 87.6562C196.297 89.5938 194.75 90.9141 192.57 90.9219C190.375 90.9141 188.812 89.5938 188.82 87.6562C188.812 85.7266 190.375 84.3984 192.57 84.3906ZM188.102 93.1875C190.664 93.1953 194.203 93.1719 197.273 92.7188L197.367 93.625C194.188 94.2188 190.773 94.2344 188.273 94.2344L188.102 93.1875ZM190.023 87.6562C190.016 88.9531 191.086 89.8438 192.57 89.8438C194.039 89.8438 195.109 88.9531 195.102 87.6562C195.109 86.3672 194.039 85.4688 192.57 85.4688C191.086 85.4688 190.016 86.3672 190.023 87.6562ZM198.195 97.2969V83.375H199.414V97.2969H198.195ZM209.367 84.6875V96H207.945V86.1562H207.883L205.133 87.9844V86.5625L207.945 84.6875H209.367ZM212.242 96L217.43 86.0156V85.9375H211.445V84.6875H218.883V86L213.711 96H212.242ZM230.461 83.375V89.0312H232.711V90.0625H230.461V97.2656H229.242V83.375H230.461ZM219.805 93.6562C223.391 91.875 225.344 89.1953 225.625 85.9062H220.445V84.875H226.867C226.859 88.8047 225.016 92.3906 220.492 94.625L219.805 93.6562ZM238.008 87.6406C238.016 90 239.727 92.3984 241.773 93.2812L241.086 94.25C239.461 93.5156 238.062 91.9141 237.414 89.9922C236.766 92.0312 235.359 93.7969 233.773 94.5938L233.039 93.625C235.031 92.6719 236.766 90.0469 236.773 87.6406V85.8281H233.492V84.8125H241.32V85.8281H238.008V87.6406ZM243.258 97.2656V83.375H244.492V97.2656H243.258ZM254.852 87.6406C254.859 90 256.57 92.3984 258.617 93.2812L257.93 94.25C256.305 93.5156 254.906 91.9141 254.258 89.9922C253.609 92.0312 252.203 93.7969 250.617 94.5938L249.883 93.625C251.875 92.6719 253.609 90.0469 253.617 87.6406V85.8281H250.336V84.8125H258.164V85.8281H254.852V87.6406ZM260.102 97.2656V83.375H261.336V97.2656H260.102ZM275.914 90.3594V91.375H263.211V90.3594H268.93V88.2188H270.133V90.3594H275.914ZM263.977 87.9844C266.43 87.6484 268.914 86.1016 268.914 84.25V83.5938H270.148V84.25C270.148 86.1016 272.648 87.6484 275.102 87.9844L274.602 88.9688C272.5 88.6016 270.406 87.4844 269.539 85.8828C268.664 87.5 266.578 88.6016 264.445 88.9688L263.977 87.9844ZM264.617 93.7188V92.7344H274.305V97.2656H273.07V93.7188H264.617ZM290.805 83.375V89.0312H293.055V90.0625H290.805V97.2656H289.586V83.375H290.805ZM280.148 93.6562C283.734 91.875 285.688 89.1953 285.969 85.9062H280.789V84.875H287.211C287.203 88.8047 285.359 92.3906 280.836 94.625L280.148 93.6562ZM304.602 87.2656V88.2812H295.117V83.6562H296.336V87.2656H304.602ZM293.383 90.9219V89.9062H306.055V90.9219H293.383ZM294.914 94.6875C294.906 93.0703 296.711 92.1641 299.711 92.1719C302.688 92.1641 304.477 93.0703 304.492 94.6875C304.477 96.2969 302.688 97.2031 299.711 97.2031C296.711 97.2031 294.906 96.2969 294.914 94.6875ZM296.164 94.6875C296.148 95.6562 297.484 96.2422 299.711 96.25C301.914 96.2422 303.25 95.6562 303.258 94.6875C303.25 93.7031 301.914 93.1484 299.711 93.1406C297.484 93.1484 296.148 93.7031 296.164 94.6875ZM317.57 83.3906V87.9688H319.664V89H317.57V93.7969H316.352V83.3906H317.57ZM306.742 86.0938V85.0938H310.273V83.3906H311.492V85.0938H315.023V86.0938H306.742ZM307.539 89.4531C307.531 87.875 308.875 86.8594 310.883 86.8594C312.867 86.8594 314.211 87.875 314.227 89.4531C314.211 91.0156 312.867 92.0234 310.883 92.0156C308.875 92.0234 307.531 91.0156 307.539 89.4531ZM308.711 89.4531C308.703 90.4297 309.57 91.0625 310.883 91.0469C312.18 91.0625 313.055 90.4297 313.07 89.4531C313.055 88.4609 312.18 87.8203 310.883 87.8281C309.57 87.8203 308.703 88.4609 308.711 89.4531ZM308.883 96.9688V92.9688H310.086V95.9375H318.211V96.9688H308.883ZM335.414 83.375V97.2656H334.211V90H332.289V96.5781H331.117V83.75H332.289V88.9844H334.211V83.375H335.414ZM323.57 93.4219C326.797 91.6172 328.125 89.0781 328.336 86.2031H324.102V85.1875H329.539C329.523 88.7188 328.281 92.0547 324.289 94.2812L323.57 93.4219ZM338.68 83.9688V85.9688H342.727V83.9688H343.945V90.0156H337.477V83.9688H338.68ZM338.68 89.0156H342.727V86.9219H338.68V89.0156ZM338.883 92.2031V91.2188H347.742V94.5781H340.117V96.1094H348.258V97.1094H338.914V93.6406H346.523V92.2031H338.883ZM346.523 90.5625V83.375H347.742V86.3906H349.836V87.4219H347.742V90.5625H346.523ZM364.773 83.9688V88.6562H360.664V90.4375H366.383V91.4375H353.727V90.4375H359.445V88.6562H355.367V83.9688H364.773ZM355.133 93.875V92.8906H364.82V97.2656H363.586V93.875H355.133ZM356.57 87.6719H363.555V84.9531H356.57V87.6719ZM379.773 94.5469V95.5625H367.055V94.5469H370.602V91.2344H368.211V90.2188H370.383V85.6875H368.18V84.6719H378.555V85.6875H376.352V90.2188H378.523V91.2344H376.133V94.5469H379.773ZM371.602 90.2188H375.148V85.6875H371.602V90.2188ZM371.836 94.5469H374.914V91.2344H371.836V94.5469ZM384.93 84.3906C387.109 84.3984 388.656 85.7266 388.664 87.6562C388.656 89.5938 387.109 90.9141 384.93 90.9219C382.734 90.9141 381.172 89.5938 381.18 87.6562C381.172 85.7266 382.734 84.3984 384.93 84.3906ZM380.461 93.1875C383.023 93.1953 386.562 93.1719 389.633 92.7188L389.727 93.625C386.547 94.2188 383.133 94.2344 380.633 94.2344L380.461 93.1875ZM382.383 87.6562C382.375 88.9531 383.445 89.8438 384.93 89.8438C386.398 89.8438 387.469 88.9531 387.461 87.6562C387.469 86.3672 386.398 85.4688 384.93 85.4688C383.445 85.4688 382.375 86.3672 382.383 87.6562ZM390.555 97.2969V83.375H391.773V97.2969H390.555ZM409.93 90.4844V91.5H404.273V94.3438H403.055V91.5H397.211V90.4844H409.93ZM398.836 96.9688V92.9688H400.07V95.9375H408.508V96.9688H398.836ZM398.867 88.8906V84.0625H408.273V88.8906H398.867ZM400.07 87.9062H407.055V85.0312H400.07V87.9062ZM422.43 83.375V97.2656H421.258V83.375H422.43ZM410.383 93.5625C412.32 92.4062 413.453 89.8672 413.445 87.3438V86.0312H410.773V85.0156H417.18V86.0312H414.633V87.3438C414.633 89.7422 415.719 92.1406 417.633 93.25L416.883 94.1562C415.516 93.3359 414.547 91.8359 414.062 90.0703C413.562 91.9844 412.555 93.6172 411.164 94.4844L410.383 93.5625ZM416.117 89.3906V88.3906H418.461V83.7188H419.617V96.5469H418.461V89.3906H416.117ZM436.586 89.8281V90.7969H423.867V89.8281H436.586ZM425.398 92.8281V91.9062H434.992V94.8594H426.648V96.1875H435.445V97.0781H425.414V94.0156H433.773V92.8281H425.398ZM425.477 84.6875V83.7969H434.945V86.6719H426.742V87.8906H435.195V88.7812H425.523V85.8281H433.711V84.6875H425.477ZM447.664 85.7812V86.7812H440.695V85.7812H443.586V83.7969H444.805V85.7812H447.664ZM441.195 90.875C441.195 89.0312 442.453 87.7266 444.18 87.7188C445.93 87.7266 447.18 89.0312 447.195 90.875C447.18 92.7422 445.93 94.0547 444.18 94.0625C442.453 94.0547 441.195 92.7422 441.195 90.875ZM442.289 90.875C442.289 92.1094 443.078 92.9922 444.18 92.9844C445.289 92.9922 446.102 92.1094 446.102 90.875C446.102 89.6562 445.289 88.7656 444.18 88.75C443.078 88.7656 442.289 89.6562 442.289 90.875ZM448.383 96.5781V83.7188H449.539V89.2344H451.383V83.375H452.555V97.2656H451.383V90.25H449.539V96.5781H448.383ZM465.57 83.375V90.4844H464.336V89.0312H460.633V88.0625H464.336V86.3906H460.836C459.969 88.5781 457.812 90.0547 454.727 90.7969L454.289 89.7812C457.695 88.9922 459.672 87.3359 459.906 85.0938H454.992V84.0781H461.258C461.258 84.5391 461.211 84.9844 461.125 85.4062H464.336V83.375H465.57ZM456.57 92.1094V91.1094H465.57V94.5H457.82V96.125H466.039V97.1406H456.602V93.5625H464.336V92.1094H456.57ZM478.133 83.375V89.1094H480.461V90.125H478.133V97.2656H476.914V83.375H478.133ZM467.305 86.625V85.6094H470.883V83.5469H472.102V85.6094H475.57V86.625H467.305ZM468.102 90.9688C468.094 89.0938 469.531 87.7812 471.508 87.7812C473.469 87.7812 474.898 89.0938 474.914 90.9688C474.898 92.8516 473.469 94.1562 471.508 94.1562C469.531 94.1562 468.094 92.8516 468.102 90.9688ZM469.273 90.9688C469.266 92.2344 470.211 93.125 471.508 93.1094C472.789 93.125 473.727 92.2344 473.742 90.9688C473.727 89.7109 472.789 88.8047 471.508 88.8125C470.211 88.8047 469.266 89.7109 469.273 90.9688ZM491.945 87.5938V88.5781H482.43V83.8906H483.648V87.5938H491.945ZM480.695 91.4688V90.4688H493.414V91.4688H480.695ZM482.352 96.9219V92.8906H483.57V95.9062H492.023V96.9219H482.352ZM496.32 94.9531L495.102 99.2031H493.945L494.805 94.9531H496.32ZM26.4062 111.391V121.578H25.1719V116.25H22.3125V115.234H25.1719V111.391H26.4062ZM14.9531 118.797C17 118.078 18.4844 116.242 18.4844 114.25V113.531H15.3438V112.516H22.8281V113.531H19.7188V114.25C19.7188 116.047 21.1094 117.789 23.1406 118.484L22.5 119.469C20.9375 118.898 19.7266 117.734 19.125 116.297C18.5234 117.906 17.2422 119.18 15.5938 119.797L14.9531 118.797ZM17.4844 124.969V120.656H18.7188V123.938H26.7969V124.969H17.4844ZM35.8594 115.328C35.8594 117.539 36.9375 119.922 38.7812 121.016L38.0781 121.969C36.7344 121.156 35.7734 119.672 35.2891 117.977C34.7812 119.828 33.75 121.422 32.3594 122.266L31.5781 121.344C33.5 120.219 34.6719 117.758 34.6719 115.375V112.688H35.8594V115.328ZM37.25 117.406V116.359H39.6094V111.672H40.7656V124.562H39.6094V117.406H37.25ZM42.4531 125.266V111.375H43.6406V125.266H42.4531ZM56.9531 111.375V125.266H55.7812V111.375H56.9531ZM45.0469 121.375C48.0703 119.586 49.5859 117.078 49.8281 114.172H45.6719V113.156H51.0469C51.0469 113.867 50.9844 114.57 50.8594 115.25H52.9688V111.75H54.1406V124.562H52.9688V119.75H50.3906V118.734H52.9688V116.266H50.6172C49.9453 118.617 48.4219 120.695 45.7969 122.266L45.0469 121.375ZM66.4062 112.688V124H64.9844V114.156H64.9219L62.1719 115.984V114.562L64.9844 112.688H66.4062ZM69.2812 124L74.4688 114.016V113.938H68.4844V112.688H75.9219V114L70.75 124H69.2812ZM80.7031 124.156C78.1953 124.156 76.7422 122.047 76.75 118.344C76.7422 114.672 78.2109 112.531 80.7031 112.531C83.1875 112.531 84.6562 114.672 84.6562 118.344C84.6562 122.047 83.2109 124.156 80.7031 124.156ZM78.1094 118.344C78.1172 121.273 79.0625 122.906 80.7031 122.906C82.3359 122.906 83.2891 121.273 83.2812 118.344C83.2891 115.414 82.3281 113.758 80.7031 113.75C79.0781 113.758 78.1172 115.414 78.1094 118.344ZM89.7344 124.156C87.2266 124.156 85.7734 122.047 85.7812 118.344C85.7734 114.672 87.2422 112.531 89.7344 112.531C92.2188 112.531 93.6875 114.672 93.6875 118.344C93.6875 122.047 92.2422 124.156 89.7344 124.156ZM87.1406 118.344C87.1484 121.273 88.0938 122.906 89.7344 122.906C91.3672 122.906 92.3203 121.273 92.3125 118.344C92.3203 115.414 91.3594 113.758 89.7344 113.75C88.1094 113.758 87.1484 115.414 87.1406 118.344ZM106.422 111.375V125.266H105.219V118H103.297V124.578H102.125V111.75H103.297V116.984H105.219V111.375H106.422ZM94.5781 121.422C97.8047 119.617 99.1328 117.078 99.3438 114.203H95.1094V113.188H100.547C100.531 116.719 99.2891 120.055 95.2969 122.281L94.5781 121.422ZM122.859 111.375V125.297H121.625V111.375H122.859ZM111.922 117.297C111.93 114.344 113.398 112.461 115.469 112.453C117.531 112.461 119.023 114.344 119.016 117.297C119.023 120.258 117.531 122.133 115.469 122.125C113.398 122.133 111.93 120.258 111.922 117.297ZM113.109 117.297C113.109 119.555 114.078 121.039 115.469 121.031C116.867 121.039 117.828 119.555 117.828 117.297C117.828 115.039 116.867 113.555 115.469 113.547C114.078 113.555 113.109 115.039 113.109 117.297ZM129.375 113.625C129.375 115.516 130.812 117.25 132.828 117.938L132.156 118.906C130.625 118.344 129.414 117.195 128.805 115.742C128.211 117.391 126.969 118.664 125.344 119.297L124.688 118.312C126.766 117.539 128.164 115.68 128.172 113.531V112.094H129.375V113.625ZM126.531 122.703C126.539 121.117 128.281 120.188 131.141 120.188C133.992 120.188 135.719 121.117 135.719 122.703C135.719 124.32 133.992 125.234 131.141 125.234C128.281 125.234 126.539 124.32 126.531 122.703ZM127.766 122.703C127.75 123.688 129.047 124.258 131.141 124.266C133.242 124.258 134.523 123.688 134.531 122.703C134.523 121.758 133.242 121.172 131.141 121.172C129.047 121.172 127.75 121.758 127.766 122.703ZM134.375 119.828V111.375H135.594V115H137.688V116.031H135.594V119.828H134.375ZM142.609 112.391C144.789 112.398 146.336 113.727 146.344 115.656C146.336 117.594 144.789 118.914 142.609 118.922C140.414 118.914 138.852 117.594 138.859 115.656C138.852 113.727 140.414 112.398 142.609 112.391ZM138.141 121.188C140.703 121.195 144.242 121.172 147.312 120.719L147.406 121.625C144.227 122.219 140.812 122.234 138.312 122.234L138.141 121.188ZM140.062 115.656C140.055 116.953 141.125 117.844 142.609 117.844C144.078 117.844 145.148 116.953 145.141 115.656C145.148 114.367 144.078 113.469 142.609 113.469C141.125 113.469 140.055 114.367 140.062 115.656ZM148.234 125.297V111.375H149.453V125.297H148.234ZM163.312 116.219C162.828 114.766 161.727 113.844 160.109 113.844C158.109 113.844 156.523 115.422 156.516 118.344C156.523 121.258 158.109 122.836 160.203 122.844C162.109 122.836 163.43 121.57 163.453 119.562H160.5V118.328H164.828V119.547C164.828 122.352 162.898 124.156 160.203 124.156C157.18 124.156 155.148 121.922 155.156 118.344C155.148 114.766 157.203 112.531 160.109 112.531C162.5 112.531 164.344 114.031 164.766 116.219H163.312ZM169.953 124H166.438V112.688H170.094C173.398 112.688 175.344 114.805 175.344 118.328C175.344 121.859 173.398 124 169.953 124ZM167.844 122.75H169.859C172.633 122.75 173.969 121.07 173.969 118.328C173.969 115.594 172.633 113.938 170 113.938H167.844V122.75ZM183.078 115.531C182.961 114.422 181.93 113.781 180.578 113.781C179.078 113.781 178.102 114.562 178.094 115.641C178.102 116.828 179.422 117.273 180.281 117.484L181.406 117.797C182.617 118.109 184.609 118.805 184.609 120.922C184.609 122.766 183.125 124.195 180.5 124.203C178.062 124.195 176.555 122.938 176.422 121.062H177.859C177.977 122.328 179.156 122.93 180.5 122.922C182.062 122.93 183.234 122.125 183.234 120.891C183.234 119.789 182.188 119.367 181 119.031L179.609 118.656C177.836 118.141 176.727 117.234 176.734 115.703C176.727 113.789 178.43 112.531 180.625 112.531C182.82 112.531 184.398 113.812 184.453 115.531H183.078ZM193.844 116.25C193.516 114.688 192.18 113.844 190.688 113.844C188.641 113.844 187.055 115.422 187.047 118.344C187.055 121.258 188.641 122.836 190.688 122.844C192.18 122.836 193.508 122 193.844 120.453H195.25C194.844 122.766 192.984 124.156 190.688 124.156C187.781 124.156 185.68 121.922 185.688 118.344C185.68 114.766 187.781 112.531 190.688 112.531C192.977 112.531 194.828 113.898 195.25 116.25H193.844ZM206.172 113.109V114.125H203.656C203.68 115.68 204.805 117.211 206.531 117.875L205.953 118.797C204.594 118.266 203.609 117.234 203.109 116.008C202.617 117.344 201.633 118.484 200.25 119.062L199.641 118.125C201.375 117.414 202.461 115.773 202.5 114.125H199.938V113.109H202.5V111.5H203.656V113.109H206.172ZM202.188 125.078V119.734H203.406V121.344H210.141V119.734H211.344V125.078H202.188ZM203.406 124.078H210.141V122.328H203.406V124.078ZM207.172 119.078V111.641H208.359V114.703H210.172V111.391H211.344V119.156H210.172V115.719H208.359V119.078H207.172ZM224.391 111.375V125.297H223.172V117.641H220.234V116.625H223.172V111.375H224.391ZM213.516 121.938V112.656H220V113.672H214.75V116.562H219.391V117.562H214.75V120.922C217.297 120.914 218.938 120.844 220.844 120.5L220.984 121.516C218.961 121.844 217.266 121.938 214.578 121.938H213.516ZM236.953 111.375V117.031H239.203V118.062H236.953V125.266H235.734V111.375H236.953ZM226.297 121.656C229.883 119.875 231.836 117.195 232.117 113.906H226.938V112.875H233.359C233.352 116.805 231.508 120.391 226.984 122.625L226.297 121.656ZM247.781 114.266C247.789 115.969 249.18 117.484 251.234 118.094L250.656 119.062C249.055 118.562 247.812 117.523 247.195 116.188C246.594 117.656 245.312 118.797 243.656 119.328L243.047 118.359C245.117 117.734 246.57 116.125 246.578 114.266V114.016H243.438V113.031H246.578V111.312H247.812V113.031H250.922V114.016H247.781V114.266ZM245.141 125.078V120.25H253.906V125.078H245.141ZM246.344 124.078H252.688V121.219H246.344V124.078ZM252.688 119.609V111.375H253.906V114.906H256V115.938H253.906V119.609H252.688ZM260.109 112.453C261.383 112.461 262.422 113.203 263.023 114.484H266.672V111.375H267.891V125.297H266.672V119.906H263.109C262.531 121.312 261.453 122.133 260.109 122.125C258.055 122.133 256.617 120.258 256.625 117.297C256.617 114.344 258.055 112.461 260.109 112.453ZM257.797 117.297C257.805 119.555 258.742 121.039 260.109 121.031C261.469 121.039 262.422 119.555 262.422 117.297C262.422 115.039 261.469 113.555 260.109 113.547C258.742 113.555 257.805 115.039 257.797 117.297ZM263.375 115.516C263.508 116.055 263.578 116.648 263.578 117.297C263.578 117.867 263.523 118.406 263.422 118.891H266.672V115.516H263.375ZM280.453 111.375V117.109H282.781V118.125H280.453V125.266H279.234V111.375H280.453ZM269.625 114.625V113.609H273.203V111.547H274.422V113.609H277.891V114.625H269.625ZM270.422 118.969C270.414 117.094 271.852 115.781 273.828 115.781C275.789 115.781 277.219 117.094 277.234 118.969C277.219 120.852 275.789 122.156 273.828 122.156C271.852 122.156 270.414 120.852 270.422 118.969ZM271.594 118.969C271.586 120.234 272.531 121.125 273.828 121.109C275.109 121.125 276.047 120.234 276.062 118.969C276.047 117.711 275.109 116.805 273.828 116.812C272.531 116.805 271.586 117.711 271.594 118.969ZM294.266 115.594V116.578H284.75V111.891H285.969V115.594H294.266ZM283.016 119.469V118.469H295.734V119.469H283.016ZM284.672 124.922V120.891H285.891V123.906H294.344V124.922H284.672ZM310.922 111.984V112.875C310.922 113.812 310.922 115.016 310.609 116.578H312.594V117.562H299.875V116.578H309.375C309.695 115.031 309.711 113.898 309.703 112.984H301.484V111.984H310.922ZM301.391 119.953V118.969H310.969V122.469H302.641V124.109H311.328V125.109H301.406V121.5H309.75V119.953H301.391ZM325.922 122.516V123.547H313.203V122.516H318.922V119.891H314.797V115.609H323.109V113.422H314.766V112.406H324.312V116.609H316.016V118.875H324.641V119.891H320.125V122.516H325.922ZM338.031 111.375V118.625H336.812V115.5H333.531V118.062H327.234V112.031H328.453V114.016H332.328V112.031H333.531V114.469H336.812V111.375H338.031ZM328.453 117.062H332.328V115H328.453V117.062ZM329.031 120.281V119.297H338.031V122.578H330.281V124.094H338.562V125.078H329.062V121.641H336.812V120.281H329.031ZM354.281 112.281V113.344C354.281 114.586 354.281 116.141 353.891 118.344H356.031V119.359H352.688V125.266H351.469V119.359H347.906V125.266H346.688V119.359H343.375V118.344H352.633C353.086 116.164 353.086 114.578 353.094 113.344V113.297H345V112.281H354.281ZM369.422 122.453V123.484H356.703V122.453H362.422V119.062H358.203V112.547H367.844V119.062H363.625V122.453H369.422ZM359.406 118.078H366.656V113.531H359.406V118.078ZM374.578 112.391C376.758 112.398 378.305 113.727 378.312 115.656C378.305 117.594 376.758 118.914 374.578 118.922C372.383 118.914 370.82 117.594 370.828 115.656C370.82 113.727 372.383 112.398 374.578 112.391ZM370.109 121.188C372.672 121.195 376.211 121.172 379.281 120.719L379.375 121.625C376.195 122.219 372.781 122.234 370.281 122.234L370.109 121.188ZM372.031 115.656C372.023 116.953 373.094 117.844 374.578 117.844C376.047 117.844 377.117 116.953 377.109 115.656C377.117 114.367 376.047 113.469 374.578 113.469C373.094 113.469 372.023 114.367 372.031 115.656ZM380.203 125.297V111.375H381.422V125.297H380.203ZM397.953 112.062V113.219C397.961 114.508 397.961 115.922 397.578 117.828L396.359 117.719C396.531 116.906 396.625 116.18 396.672 115.523L388.219 115.922L388.047 114.875L396.727 114.594C396.742 114.109 396.75 113.656 396.75 113.219V113.062H388.391V112.062H397.953ZM386.891 119.766V118.766H392.047V116.719H393.281V118.766H399.531V119.766H386.891ZM388.5 125.047V120.953H389.734V124.047H398.281V125.047H388.5ZM405.922 113.078V114.062H401.922V116.812H405.281V117.797H401.922V120.922C403.914 120.898 405.133 120.82 406.641 120.547L406.75 121.547C405.141 121.875 403.828 121.914 401.625 121.922H400.75V113.078H405.922ZM406.031 117.672V116.656H408.078V111.719H409.25V124.547H408.078V117.672H406.031ZM410.906 125.266V111.375H412.094V125.266H410.906ZM420.453 113.422C420.461 115.805 423.18 117.922 425.594 118.375L425.031 119.406C422.93 118.922 420.727 117.43 419.828 115.391C418.922 117.43 416.727 118.914 414.625 119.406L414.062 118.375C416.469 117.914 419.164 115.812 419.172 113.422V112.359H420.453V113.422ZM413.531 123.375V122.359H426.25V123.375H413.531ZM438.109 118.891V119.891H428.5V112.578H437.953V113.609H429.75V115.672H437.656V116.656H429.75V118.891H438.109ZM426.859 123.453V122.438H439.578V123.453H426.859ZM451.656 111.375V118.828H450.438V111.375H451.656ZM440.516 115.25C440.508 113.352 442.047 112.047 444.156 112.062C446.266 112.047 447.789 113.352 447.797 115.25C447.789 117.141 446.266 118.445 444.156 118.438C442.047 118.445 440.508 117.141 440.516 115.25ZM441.719 115.25C441.703 116.516 442.727 117.414 444.156 117.422C445.57 117.414 446.594 116.516 446.594 115.25C446.594 113.977 445.57 113.086 444.156 113.094C442.727 113.086 441.703 113.977 441.719 115.25ZM442.656 125.078V119.531H443.875V121.219H450.438V119.531H451.656V125.078H442.656ZM443.875 124.078H450.438V122.203H443.875V124.078ZM464.969 111.375V125.266H463.75V111.375H464.969ZM454.422 121.688V112.75H455.625V120.625C457.75 120.609 459.938 120.445 462.266 119.953L462.438 121C459.969 121.516 457.773 121.688 455.547 121.688H454.422ZM477.594 111.375V116.875H479.922V117.906H477.594V125.297H476.375V111.375H477.594ZM467.453 121.812V112.734H473.938V113.75H468.672V120.781C471.188 120.773 472.961 120.664 475.031 120.281L475.188 121.344C473.008 121.734 471.188 121.812 468.547 121.812H467.453ZM481.641 124.094C481.094 124.086 480.625 123.633 480.641 123.078C480.625 122.531 481.094 122.078 481.641 122.078C482.195 122.078 482.648 122.531 482.641 123.078C482.648 123.633 482.195 124.086 481.641 124.094Z" fill="white"/>
</svg>
