<svg width="498" height="132" viewBox="0 0 498 132" fill="none" xmlns="http://www.w3.org/2000/svg">
<path d="M70.9688 19.5938C70.5938 16.2656 67.5469 14.3438 63.4688 14.3438C58.9688 14.3438 56.0156 16.6875 56.0156 19.9219C56.0156 23.4844 60 24.7969 62.5781 25.4531L65.9531 26.3906C69.6094 27.3281 75.5625 29.4375 75.5625 35.7656C75.5625 41.2969 71.1094 45.6094 63.2344 45.6094C55.9219 45.6094 51.375 41.8125 51 36.1875H55.3125C55.6875 39.9844 59.2031 41.7656 63.2344 41.7656C67.9219 41.7656 71.4375 39.375 71.4375 35.6719C71.4375 32.3906 68.2969 31.125 64.7344 30.0938L60.5625 28.9688C55.2188 27.4219 51.9375 24.7031 51.9375 20.1094C51.9375 14.3906 57.0469 10.5938 63.6094 10.5938C70.1719 10.5938 74.9062 14.4375 75.0938 19.5938H70.9688ZM91.5 45.5156C84.5625 45.5156 79.875 40.3125 79.875 32.3906C79.875 24.4688 84.5625 19.2188 91.5 19.2188C98.3906 19.2188 103.031 24.4688 103.031 32.3906C103.031 40.3125 98.3906 45.5156 91.5 45.5156ZM91.5 41.9531C96.6094 41.9531 99 37.4531 99 32.3906C99 27.3281 96.6094 22.7812 91.5 22.7812C86.2969 22.7812 83.9062 27.3281 83.9062 32.3906C83.9062 37.4531 86.2969 41.9531 91.5 41.9531ZM112.359 11.0625V45H108.328V11.0625H112.359ZM134.859 34.5469V19.5469H138.844V45H134.859V40.6875H134.578C133.359 43.2656 130.875 45.3281 127.031 45.3281C122.203 45.3281 118.781 42.1875 118.781 35.7188V19.5469H122.812V35.4375C122.812 39.0938 125.109 41.4375 128.344 41.4375C131.203 41.4375 134.859 39.2812 134.859 34.5469ZM156.422 19.5469V22.9219H151.078V37.6875C151.078 40.9688 152.672 41.4844 154.406 41.4844C155.156 41.4844 156.188 41.4375 156.797 41.3906V45.1406C156.188 45.2344 155.156 45.3281 153.984 45.3281C150.609 45.3281 147 43.2188 147 38.7188V22.9219H143.156V19.5469H147V13.4531H151.078V19.5469H156.422ZM161.625 45V19.5469H165.656V45H161.625ZM163.641 15.3281C162.094 15.3281 160.828 14.1562 160.828 12.6562C160.828 11.1562 162.094 9.98438 163.641 9.98438C165.188 9.98438 166.5 11.1562 166.5 12.6562C166.5 14.1562 165.188 15.3281 163.641 15.3281ZM182.484 45.5156C175.547 45.5156 170.859 40.3125 170.859 32.3906C170.859 24.4688 175.547 19.2188 182.484 19.2188C189.375 19.2188 194.016 24.4688 194.016 32.3906C194.016 40.3125 189.375 45.5156 182.484 45.5156ZM182.484 41.9531C187.594 41.9531 189.984 37.4531 189.984 32.3906C189.984 27.3281 187.594 22.7812 182.484 22.7812C177.281 22.7812 174.891 27.3281 174.891 32.3906C174.891 37.4531 177.281 41.9531 182.484 41.9531ZM203.344 29.7188V45H199.312V19.5469H203.203V23.5312H203.531C204.75 20.9531 207.094 19.2188 210.984 19.2188C216.141 19.2188 219.562 22.3594 219.562 28.8281V45H215.531V29.1094C215.531 25.1719 213.375 22.8281 209.766 22.8281C206.062 22.8281 203.344 25.3125 203.344 29.7188ZM261.75 21.75C260.766 17.0625 256.734 14.5312 252.281 14.5312C246.141 14.5312 241.359 19.2656 241.359 28.0312C241.359 36.7969 246.141 41.5312 252.281 41.5312C256.734 41.5312 260.719 39 261.75 34.3594H265.969C264.75 41.2969 259.172 45.4688 252.281 45.4688C243.562 45.4688 237.281 38.7656 237.281 28.0312C237.281 17.2969 243.562 10.5938 252.281 10.5938C259.125 10.5938 264.703 14.7188 265.969 21.75H261.75ZM275.391 29.7188V45H271.359V11.0625H275.391V23.5312H275.719C276.891 20.9062 279.188 19.2188 283.219 19.2188C288.422 19.2188 291.891 22.3125 291.891 28.8281V45H287.859V29.1094C287.859 25.125 285.656 22.8281 282 22.8281C278.203 22.8281 275.391 25.3125 275.391 29.7188ZM297.141 37.7812C297.141 31.9219 302.297 30.6094 306.703 30.2812C308.32 30.1641 312.445 29.9531 313.594 29.9062V27.8438C313.594 24.6094 311.672 22.7344 307.828 22.7344C304.594 22.7344 302.672 24.2344 302.109 26.1562H297.891C298.406 22.0781 302.391 19.2188 308.016 19.2188C311.344 19.2188 317.578 20.2031 317.578 28.2188V45H313.594V41.5312H313.406C312.562 43.2656 310.219 45.6094 305.812 45.6094C300.984 45.6094 297.141 42.75 297.141 37.7812ZM301.172 37.9688C301.172 40.6406 303.422 42 306.516 42C311.062 42 313.594 38.9531 313.594 35.7656V33.1875L307.172 33.6562C303.516 33.8906 301.172 35.2031 301.172 37.9688ZM328.078 11.0625V45H324.047V11.0625H328.078ZM338.531 11.0625V45H334.5V11.0625H338.531ZM355.641 45.5156C348.281 45.5156 343.734 40.3125 343.734 32.4844C343.734 24.6562 348.328 19.2188 355.266 19.2188C360.609 19.2188 366.234 22.5 366.234 31.9219V33.6094H347.766C347.953 39 351.094 41.9531 355.641 41.9531C358.688 41.9531 360.609 40.6406 361.547 39.0469H365.859C364.641 42.8906 360.891 45.5156 355.641 45.5156ZM347.812 30.1875H362.156C362.156 25.9219 359.438 22.7812 355.266 22.7812C350.859 22.7812 348.047 26.25 347.812 30.1875ZM375.516 29.7188V45H371.484V19.5469H375.375V23.5312H375.703C376.922 20.9531 379.266 19.2188 383.156 19.2188C388.312 19.2188 391.734 22.3594 391.734 28.8281V45H387.703V29.1094C387.703 25.1719 385.547 22.8281 381.938 22.8281C378.234 22.8281 375.516 25.3125 375.516 29.7188ZM408.516 55.0781C402.375 55.0781 398.203 52.4062 397.734 47.6719H401.953C402.516 50.25 404.906 51.5625 408.516 51.5625C412.875 51.5625 415.547 49.6875 415.547 45.4688V40.3125H415.219C414.375 41.7188 412.734 44.625 407.812 44.625C401.625 44.625 396.984 39.9375 396.984 31.9219C396.984 24.0938 401.484 19.2188 407.859 19.2188C412.781 19.2188 414.375 22.2188 415.312 23.5781H415.641V19.5469H419.578V45.7031C419.578 52.2656 414.703 55.0781 408.516 55.0781ZM408.375 41.0156C413.016 41.0156 415.641 37.6875 415.641 32.0625C415.641 26.625 413.109 22.8281 408.375 22.8281C403.5 22.8281 401.062 26.9531 401.062 32.0625C401.062 37.3594 403.547 41.0156 408.375 41.0156ZM436.688 45.5156C429.328 45.5156 424.781 40.3125 424.781 32.4844C424.781 24.6562 429.375 19.2188 436.312 19.2188C441.656 19.2188 447.281 22.5 447.281 31.9219V33.6094H428.812C429 39 432.141 41.9531 436.688 41.9531C439.734 41.9531 441.656 40.6406 442.594 39.0469H446.906C445.688 42.8906 441.938 45.5156 436.688 45.5156ZM428.859 30.1875H443.203C443.203 25.9219 440.484 22.7812 436.312 22.7812C431.906 22.7812 429.094 26.25 428.859 30.1875Z" fill="white"/>
<path d="M9.36719 88.2188C8.88281 86.7656 7.77344 85.8438 6.16406 85.8438C4.16406 85.8438 2.57031 87.4219 2.57031 90.3438C2.57031 93.2656 4.16406 94.8438 6.25781 94.8438C8.17188 94.8438 9.47656 93.5625 9.50781 91.5625H6.55469V90.3281H10.8828V91.5469C10.8828 94.3594 8.94531 96.1562 6.25781 96.1562C3.24219 96.1562 1.21094 93.9219 1.21094 90.3438C1.21094 86.7656 3.25781 84.5312 6.16406 84.5312C8.55469 84.5312 10.3984 86.0312 10.8203 88.2188H9.36719ZM15.7891 96.1719C13.4766 96.1719 11.9141 94.4375 11.9141 91.7969C11.9141 89.1562 13.4766 87.4062 15.7891 87.4062C18.0859 87.4062 19.6328 89.1562 19.6328 91.7969C19.6328 94.4375 18.0859 96.1719 15.7891 96.1719ZM15.7891 94.9844C17.4922 94.9844 18.2891 93.4844 18.2891 91.7969C18.2891 90.1094 17.4922 88.5938 15.7891 88.5938C14.0547 88.5938 13.2578 90.1094 13.2578 91.7969C13.2578 93.4844 14.0547 94.9844 15.7891 94.9844ZM24.3672 96.1719C22.0547 96.1719 20.4922 94.4375 20.4922 91.7969C20.4922 89.1562 22.0547 87.4062 24.3672 87.4062C26.6641 87.4062 28.2109 89.1562 28.2109 91.7969C28.2109 94.4375 26.6641 96.1719 24.3672 96.1719ZM24.3672 94.9844C26.0703 94.9844 26.8672 93.4844 26.8672 91.7969C26.8672 90.1094 26.0703 88.5938 24.3672 88.5938C22.6328 88.5938 21.8359 90.1094 21.8359 91.7969C21.8359 93.4844 22.6328 94.9844 24.3672 94.9844ZM32.9141 99.3594C30.8672 99.3594 29.4766 98.4688 29.3203 96.8906H30.7266C30.9141 97.75 31.7109 98.1875 32.9141 98.1875C34.3672 98.1875 35.2578 97.5625 35.2578 96.1562V94.4375H35.1484C34.8672 94.9062 34.3203 95.875 32.6797 95.875C30.6172 95.875 29.0703 94.3125 29.0703 91.6406C29.0703 89.0312 30.5703 87.4062 32.6953 87.4062C34.3359 87.4062 34.8672 88.4062 35.1797 88.8594H35.2891V87.5156H36.6016V96.2344C36.6016 98.4219 34.9766 99.3594 32.9141 99.3594ZM32.8672 94.6719C34.4141 94.6719 35.2891 93.5625 35.2891 91.6875C35.2891 89.875 34.4453 88.6094 32.8672 88.6094C31.2422 88.6094 30.4297 89.9844 30.4297 91.6875C30.4297 93.4531 31.2578 94.6719 32.8672 94.6719ZM39.5859 84.6875V96H38.2422V84.6875H39.5859ZM44.7891 96.1719C42.3359 96.1719 40.8203 94.4375 40.8203 91.8281C40.8203 89.2188 42.3516 87.4062 44.6641 87.4062C46.4453 87.4062 48.3203 88.5 48.3203 91.6406V92.2031H42.1641C42.2266 94 43.2734 94.9844 44.7891 94.9844C45.8047 94.9844 46.4453 94.5469 46.7578 94.0156H48.1953C47.7891 95.2969 46.5391 96.1719 44.7891 96.1719ZM42.1797 91.0625H46.9609C46.9609 89.6406 46.0547 88.5938 44.6641 88.5938C43.1953 88.5938 42.2578 89.75 42.1797 91.0625ZM53.6016 84.3906C55.7891 84.3906 57.3359 85.7188 57.3359 87.6562C57.3359 89.5938 55.7891 90.9219 53.6016 90.9219C51.4141 90.9219 49.8359 89.5938 49.8516 87.6562C49.8359 85.7188 51.4141 84.3906 53.6016 84.3906ZM53.6016 85.4688C52.1172 85.4688 51.0391 86.3594 51.0547 87.6562C51.0391 88.9531 52.1172 89.8438 53.6016 89.8438C55.0703 89.8438 56.1328 88.9531 56.1328 87.6562C56.1328 86.3594 55.0703 85.4688 53.6016 85.4688ZM60.4453 83.375V97.2969H59.2266V83.375H60.4453ZM49.1328 93.1875C51.6953 93.1875 55.2266 93.1719 58.3047 92.7188L58.3984 93.625C55.2266 94.2188 51.8047 94.2344 49.3047 94.2344L49.1328 93.1875ZM77.3828 83.375V97.2656H76.1484V83.375H77.3828ZM73.2734 84.8906C73.2578 88.8906 71.3984 92.4219 66.7422 94.6562L66.0703 93.6562C69.8281 91.875 71.7422 89.2109 72.0234 85.8906H66.7109V84.8906H73.2734ZM86.1953 83.9844C86.1953 85.7188 88.6953 87.0312 91.1953 87.3438L90.7578 88.2812C88.5703 87.9922 86.4297 87.0078 85.5547 85.5C84.6641 87.0078 82.5156 87.9922 80.3516 88.2812L79.9297 87.3438C82.4141 87.0312 84.9297 85.7188 84.9297 83.9844V83.4531H86.1953V83.9844ZM91.8828 89.1875V90.1875H86.1484V91.5781H90.2578V94.7344H82.0078V96.1406H90.6797V97.1094H80.7891V93.8125H89.0547V92.5469H80.7578V91.5781H84.9297V90.1875H79.2266V89.1875H91.8828ZM98.8828 83.625C101.977 83.625 103.789 84.4688 103.789 86.0156C103.789 87.5938 101.977 88.4375 98.8828 88.4531C95.7891 88.4375 93.9609 87.5938 93.9609 86.0156C93.9609 84.4688 95.7891 83.625 98.8828 83.625ZM98.8828 84.5469C96.5703 84.5469 95.2266 85.1094 95.2422 86.0156C95.2266 86.9844 96.5703 87.5156 98.8828 87.5156C101.18 87.5156 102.539 86.9844 102.539 86.0156C102.539 85.1094 101.18 84.5469 98.8828 84.5469ZM105.211 89.3906V90.3906H92.5547V89.3906H105.211ZM103.586 91.5938V94.7031H95.3359V96.1406H104.008V97.1094H94.1172V93.7969H102.383V92.5312H94.0859V91.5938H103.586ZM120.242 83.375V86.9375H122.32V87.9844H120.242V91.5781H119.008V83.375H120.242ZM120.242 92.2031V95H112.445V96.2344H120.773V97.1094H111.227V94.1719H119.023V93.0781H111.195V92.2031H120.242ZM109.336 90.3281C110.445 90.3281 111.742 90.3281 113.102 90.2812V89.4219C111.477 89.3047 110.445 88.6562 110.445 87.5938C110.445 86.4531 111.727 85.7969 113.695 85.7969C115.68 85.7969 116.945 86.4531 116.961 87.5938C116.945 88.6484 115.945 89.2969 114.32 89.4219V90.25C115.617 90.1875 116.93 90.0859 118.148 89.9062L118.258 90.7344C115.258 91.2188 111.914 91.25 109.477 91.25L109.336 90.3281ZM117.727 84.4375V85.3281H109.68V84.4375H113.102V83.25H114.32V84.4375H117.727ZM113.695 86.6094C112.414 86.625 111.617 86.9844 111.617 87.5938C111.617 88.2188 112.414 88.625 113.695 88.625C114.977 88.625 115.789 88.2188 115.789 87.5938C115.789 86.9844 114.977 86.625 113.695 86.6094ZM135.383 90.25V91.2656H122.727V90.25H125.867V88.2969C124.758 87.8672 124.133 87.1562 124.133 86.2188C124.133 84.5781 126.008 83.6406 129.055 83.6406C132.07 83.6406 133.961 84.5781 133.961 86.2188C133.961 87.1484 133.344 87.8594 132.242 88.2812V90.25H135.383ZM129.055 92.3281C132.039 92.3281 133.82 93.1875 133.836 94.7812C133.82 96.3594 132.039 97.2344 129.055 97.2344C126.039 97.2344 124.258 96.3594 124.258 94.7812C124.258 93.1875 126.039 92.3281 129.055 92.3281ZM129.055 93.2656C126.82 93.2812 125.492 93.8281 125.508 94.7812C125.492 95.7188 126.82 96.2812 129.055 96.2812C131.258 96.2812 132.602 95.7188 132.602 94.7812C132.602 93.8281 131.258 93.2812 129.055 93.2656ZM129.055 84.6094C126.789 84.6094 125.383 85.2188 125.398 86.2188C125.383 87.2344 126.789 87.8281 129.055 87.8281C131.305 87.8281 132.711 87.2344 132.711 86.2188C132.711 85.2188 131.305 84.6094 129.055 84.6094ZM127.086 90.25H131.023V88.625C130.438 88.7266 129.781 88.7812 129.055 88.7812C128.328 88.7812 127.672 88.7266 127.086 88.625V90.25ZM146.805 83.375V89.1094H149.133V90.125H146.805V97.2656H145.586V83.375H146.805ZM144.242 85.6094V86.625H135.977V85.6094H139.555V83.5469H140.773V85.6094H144.242ZM140.18 87.7812C142.148 87.7812 143.57 89.0938 143.586 90.9688C143.57 92.8438 142.148 94.1562 140.18 94.1562C138.195 94.1562 136.758 92.8438 136.773 90.9688C136.758 89.0938 138.195 87.7812 140.18 87.7812ZM140.18 88.8125C138.883 88.8125 137.93 89.7188 137.945 90.9688C137.93 92.2344 138.883 93.125 140.18 93.1094C141.461 93.125 142.398 92.2344 142.414 90.9688C142.398 89.7188 141.461 88.8125 140.18 88.8125ZM153.117 84.4531C154.391 84.4609 155.422 85.2031 156.023 86.4844H159.68V83.375H160.898V97.2969H159.68V91.9062H156.117C155.531 93.3125 154.461 94.125 153.117 94.125C151.07 94.125 149.633 92.25 149.633 89.2969C149.633 86.3438 151.07 84.4688 153.117 84.4531ZM153.117 85.5469C151.742 85.5625 150.805 87.0312 150.805 89.2969C150.805 91.5625 151.742 93.0312 153.117 93.0312C154.477 93.0312 155.43 91.5625 155.43 89.2969C155.43 87.0312 154.477 85.5625 153.117 85.5469ZM156.383 87.5156C156.508 88.0547 156.586 88.6484 156.586 89.2969C156.586 89.8672 156.523 90.4062 156.43 90.8906H159.68V87.5156H156.383ZM174.32 84.6875H175.727V92.1719C175.727 94.5 173.992 96.2031 171.32 96.2031C168.648 96.2031 166.914 94.5 166.914 92.1719V84.6875H168.32V92.0625C168.32 93.7031 169.461 94.8906 171.32 94.8906C173.195 94.8906 174.32 93.7031 174.32 92.0625V84.6875ZM186.711 84.6875V96H185.367L179.242 87.1875H179.133V96H177.727V84.6875H179.086L185.211 93.5156H185.32V84.6875H186.711ZM192.57 84.3906C194.758 84.3906 196.305 85.7188 196.305 87.6562C196.305 89.5938 194.758 90.9219 192.57 90.9219C190.383 90.9219 188.805 89.5938 188.82 87.6562C188.805 85.7188 190.383 84.3906 192.57 84.3906ZM192.57 85.4688C191.086 85.4688 190.008 86.3594 190.023 87.6562C190.008 88.9531 191.086 89.8438 192.57 89.8438C194.039 89.8438 195.102 88.9531 195.102 87.6562C195.102 86.3594 194.039 85.4688 192.57 85.4688ZM199.414 83.375V97.2969H198.195V83.375H199.414ZM188.102 93.1875C190.664 93.1875 194.195 93.1719 197.273 92.7188L197.367 93.625C194.195 94.2188 190.773 94.2344 188.273 94.2344L188.102 93.1875ZM209.367 84.6875V96H207.945V86.1562H207.883L205.133 87.9844V86.5625L207.945 84.6875H209.367ZM212.242 96L217.43 86.0156V85.9375H211.445V84.6875H218.883V86L213.711 96H212.242ZM230.461 83.375V89.0312H232.711V90.0625H230.461V97.2656H229.242V83.375H230.461ZM226.867 84.875C226.867 88.8125 225.023 92.3906 220.492 94.625L219.805 93.6562C223.398 91.8672 225.352 89.1953 225.633 85.9062H220.445V84.875H226.867ZM238.008 87.6406C238.008 90 239.727 92.3906 241.773 93.2812L241.086 94.25C239.461 93.5078 238.055 91.9062 237.414 89.9844C236.758 92.0234 235.359 93.7969 233.773 94.5938L233.039 93.625C235.023 92.6719 236.758 90.0469 236.773 87.6406V85.8281H233.492V84.8125H241.32V85.8281H238.008V87.6406ZM244.492 83.375V97.2656H243.258V83.375H244.492ZM254.852 87.6406C254.852 90 256.57 92.3906 258.617 93.2812L257.93 94.25C256.305 93.5078 254.898 91.9062 254.258 89.9844C253.602 92.0234 252.203 93.7969 250.617 94.5938L249.883 93.625C251.867 92.6719 253.602 90.0469 253.617 87.6406V85.8281H250.336V84.8125H258.164V85.8281H254.852V87.6406ZM261.336 83.375V97.2656H260.102V83.375H261.336ZM275.914 90.3594V91.375H263.211V90.3594H268.93V88.2188H270.133V90.3594H275.914ZM270.148 84.25C270.148 86.0938 272.648 87.6406 275.102 87.9844L274.602 88.9688C272.492 88.6016 270.406 87.4844 269.539 85.875C268.664 87.4922 266.57 88.6016 264.445 88.9688L263.977 87.9844C266.43 87.6406 268.914 86.0938 268.914 84.25V83.5938H270.148V84.25ZM274.305 92.7344V97.2656H273.07V93.7188H264.617V92.7344H274.305ZM290.805 83.375V89.0312H293.055V90.0625H290.805V97.2656H289.586V83.375H290.805ZM287.211 84.875C287.211 88.8125 285.367 92.3906 280.836 94.625L280.148 93.6562C283.742 91.8672 285.695 89.1953 285.977 85.9062H280.789V84.875H287.211ZM304.602 87.2656V88.2812H295.117V83.6562H296.336V87.2656H304.602ZM306.055 89.9062V90.9219H293.383V89.9062H306.055ZM299.711 92.1719C302.695 92.1719 304.477 93.0781 304.492 94.6875C304.477 96.2969 302.695 97.2031 299.711 97.2031C296.711 97.2031 294.914 96.2969 294.914 94.6875C294.914 93.0781 296.711 92.1719 299.711 92.1719ZM299.711 93.1406C297.477 93.1562 296.148 93.7031 296.164 94.6875C296.148 95.6562 297.477 96.25 299.711 96.25C301.914 96.25 303.258 95.6562 303.258 94.6875C303.258 93.7031 301.914 93.1562 299.711 93.1406ZM317.57 83.3906V87.9688H319.664V89H317.57V93.7969H316.352V83.3906H317.57ZM315.023 85.0938V86.0938H306.742V85.0938H310.273V83.3906H311.492V85.0938H315.023ZM310.883 86.8594C312.867 86.8594 314.211 87.875 314.227 89.4531C314.211 91.0156 312.867 92.0156 310.883 92.0156C308.883 92.0156 307.523 91.0156 307.539 89.4531C307.523 87.875 308.883 86.8594 310.883 86.8594ZM310.883 87.8281C309.57 87.8281 308.695 88.4688 308.711 89.4531C308.695 90.4375 309.57 91.0625 310.883 91.0469C312.18 91.0625 313.055 90.4375 313.07 89.4531C313.055 88.4688 312.18 87.8281 310.883 87.8281ZM318.211 95.9375V96.9688H308.883V92.9688H310.086V95.9375H318.211ZM335.414 83.375V97.2656H334.211V90H332.289V96.5781H331.117V83.75H332.289V88.9844H334.211V83.375H335.414ZM329.539 85.1875C329.523 88.7188 328.289 92.0625 324.289 94.2812L323.57 93.4219C326.797 91.625 328.133 89.0781 328.336 86.2031H324.102V85.1875H329.539ZM338.68 83.9688V85.9688H342.727V83.9688H343.945V90.0156H337.477V83.9688H338.68ZM338.68 89.0156H342.727V86.9219H338.68V89.0156ZM347.742 83.375V86.3906H349.836V87.4219H347.742V90.5625H346.523V83.375H347.742ZM347.742 91.2188V94.5781H340.117V96.1094H348.258V97.1094H338.914V93.6406H346.523V92.2031H338.883V91.2188H347.742ZM364.773 83.9688V88.6562H360.664V90.4375H366.383V91.4375H353.727V90.4375H359.445V88.6562H355.367V83.9688H364.773ZM356.57 84.9531V87.6719H363.555V84.9531H356.57ZM364.82 92.8906V97.2656H363.586V93.875H355.133V92.8906H364.82ZM379.773 94.5469V95.5625H367.055V94.5469H370.602V91.2344H368.211V90.2188H370.383V85.6875H368.18V84.6719H378.555V85.6875H376.352V90.2188H378.523V91.2344H376.133V94.5469H379.773ZM371.602 90.2188H375.148V85.6875H371.602V90.2188ZM371.836 94.5469H374.914V91.2344H371.836V94.5469ZM384.93 84.3906C387.117 84.3906 388.664 85.7188 388.664 87.6562C388.664 89.5938 387.117 90.9219 384.93 90.9219C382.742 90.9219 381.164 89.5938 381.18 87.6562C381.164 85.7188 382.742 84.3906 384.93 84.3906ZM384.93 85.4688C383.445 85.4688 382.367 86.3594 382.383 87.6562C382.367 88.9531 383.445 89.8438 384.93 89.8438C386.398 89.8438 387.461 88.9531 387.461 87.6562C387.461 86.3594 386.398 85.4688 384.93 85.4688ZM391.773 83.375V97.2969H390.555V83.375H391.773ZM380.461 93.1875C383.023 93.1875 386.555 93.1719 389.633 92.7188L389.727 93.625C386.555 94.2188 383.133 94.2344 380.633 94.2344L380.461 93.1875ZM409.93 90.4844V91.5H404.273V94.3438H403.055V91.5H397.211V90.4844H409.93ZM408.273 84.0625V88.8906H398.867V84.0625H408.273ZM400.07 85.0312V87.9062H407.055V85.0312H400.07ZM408.508 95.9375V96.9688H398.836V92.9688H400.07V95.9375H408.508ZM422.43 83.375V97.2656H421.258V83.375H422.43ZM419.617 83.7188V96.5469H418.461V89.3906H416.117V88.3906H418.461V83.7188H419.617ZM414.633 87.3438C414.633 89.75 415.711 92.1406 417.633 93.25L416.883 94.1562C415.516 93.3359 414.547 91.8359 414.07 90.0625C413.562 91.9766 412.555 93.6094 411.164 94.4844L410.383 93.5625C412.32 92.4062 413.445 89.875 413.445 87.3438V86.0312H410.773V85.0156H417.18V86.0312H414.633V87.3438ZM436.586 89.8281V90.7969H423.867V89.8281H436.586ZM434.992 91.9062V94.8594H426.648V96.1875H435.445V97.0781H425.414V94.0156H433.773V92.8281H425.398V91.9062H434.992ZM434.945 83.7969V86.6719H426.742V87.8906H435.195V88.7812H425.523V85.8281H433.711V84.6875H425.477V83.7969H434.945ZM447.664 85.7812V86.7812H440.695V85.7812H443.586V83.7969H444.805V85.7812H447.664ZM444.18 87.7188C445.93 87.7188 447.18 89.0312 447.195 90.875C447.18 92.7344 445.93 94.0625 444.18 94.0625C442.445 94.0625 441.195 92.7344 441.195 90.875C441.195 89.0312 442.445 87.7188 444.18 87.7188ZM444.18 88.75C443.086 88.7656 442.289 89.6562 442.289 90.875C442.289 92.1094 443.086 93 444.18 92.9844C445.289 93 446.102 92.1094 446.102 90.875C446.102 89.6562 445.289 88.7656 444.18 88.75ZM452.555 83.375V97.2656H451.383V90.25H449.539V96.5781H448.383V83.7188H449.539V89.2344H451.383V83.375H452.555ZM465.57 83.375V90.4844H464.336V89.0312H460.633V88.0625H464.336V86.3906H460.836C459.961 88.5859 457.805 90.0625 454.727 90.7969L454.289 89.7812C457.695 88.9922 459.68 87.3281 459.914 85.0938H454.992V84.0781H461.258C461.258 84.5391 461.211 84.9844 461.133 85.4062H464.336V83.375H465.57ZM465.57 91.1094V94.5H457.82V96.125H466.039V97.1406H456.602V93.5625H464.336V92.1094H456.57V91.1094H465.57ZM478.133 83.375V89.1094H480.461V90.125H478.133V97.2656H476.914V83.375H478.133ZM475.57 85.6094V86.625H467.305V85.6094H470.883V83.5469H472.102V85.6094H475.57ZM471.508 87.7812C473.477 87.7812 474.898 89.0938 474.914 90.9688C474.898 92.8438 473.477 94.1562 471.508 94.1562C469.523 94.1562 468.086 92.8438 468.102 90.9688C468.086 89.0938 469.523 87.7812 471.508 87.7812ZM471.508 88.8125C470.211 88.8125 469.258 89.7188 469.273 90.9688C469.258 92.2344 470.211 93.125 471.508 93.1094C472.789 93.125 473.727 92.2344 473.742 90.9688C473.727 89.7188 472.789 88.8125 471.508 88.8125ZM491.945 87.5938V88.5781H482.43V83.8906H483.648V87.5938H491.945ZM493.414 90.4688V91.4688H480.695V90.4688H493.414ZM492.023 95.9062V96.9219H482.352V92.8906H483.57V95.9062H492.023ZM496.32 94.9531L495.102 99.2031H493.945L494.805 94.9531H496.32ZM26.4062 111.391V121.578H25.1719V116.25H22.3125V115.234H25.1719V111.391H26.4062ZM26.7969 123.938V124.969H17.4844V120.656H18.7188V123.938H26.7969ZM19.7188 114.25C19.7188 116.047 21.1094 117.797 23.1406 118.484L22.5 119.469C20.9297 118.906 19.7188 117.734 19.125 116.297C18.5234 117.898 17.2422 119.18 15.5938 119.797L14.9531 118.797C17 118.078 18.4844 116.25 18.4844 114.25V113.531H15.3438V112.516H22.8281V113.531H19.7188V114.25ZM35.8594 115.328C35.8594 117.531 36.9375 119.922 38.7812 121.016L38.0781 121.969C36.7422 121.156 35.7812 119.672 35.2969 117.984C34.7812 119.828 33.75 121.414 32.3594 122.266L31.5781 121.344C33.5 120.219 34.6719 117.75 34.6719 115.375V112.688H35.8594V115.328ZM43.6406 111.375V125.266H42.4531V111.375H43.6406ZM40.7656 111.672V124.562H39.6094V117.406H37.25V116.359H39.6094V111.672H40.7656ZM56.9531 111.375V125.266H55.7812V111.375H56.9531ZM54.1406 111.75V124.562H52.9688V119.75H50.3906V118.734H52.9688V116.266H50.625C49.9453 118.617 48.4219 120.695 45.7969 122.266L45.0469 121.375C48.0703 119.586 49.5859 117.078 49.8281 114.172H45.6719V113.156H51.0469C51.0469 113.867 50.9844 114.57 50.8594 115.25H52.9688V111.75H54.1406ZM66.4062 112.688V124H64.9844V114.156H64.9219L62.1719 115.984V114.562L64.9844 112.688H66.4062ZM69.2812 124L74.4688 114.016V113.938H68.4844V112.688H75.9219V114L70.75 124H69.2812ZM80.7031 124.156C78.1875 124.156 76.75 122.047 76.75 118.344C76.75 114.672 78.2188 112.531 80.7031 112.531C83.1875 112.531 84.6562 114.672 84.6562 118.344C84.6562 122.047 83.2031 124.156 80.7031 124.156ZM80.7031 122.906C82.3281 122.906 83.2812 121.266 83.2812 118.344C83.2812 115.422 82.3281 113.75 80.7031 113.75C79.0781 113.75 78.1094 115.422 78.1094 118.344C78.1094 121.266 79.0625 122.906 80.7031 122.906ZM89.7344 124.156C87.2188 124.156 85.7812 122.047 85.7812 118.344C85.7812 114.672 87.25 112.531 89.7344 112.531C92.2188 112.531 93.6875 114.672 93.6875 118.344C93.6875 122.047 92.2344 124.156 89.7344 124.156ZM89.7344 122.906C91.3594 122.906 92.3125 121.266 92.3125 118.344C92.3125 115.422 91.3594 113.75 89.7344 113.75C88.1094 113.75 87.1406 115.422 87.1406 118.344C87.1406 121.266 88.0938 122.906 89.7344 122.906ZM106.422 111.375V125.266H105.219V118H103.297V124.578H102.125V111.75H103.297V116.984H105.219V111.375H106.422ZM100.547 113.188C100.531 116.719 99.2969 120.062 95.2969 122.281L94.5781 121.422C97.8047 119.625 99.1406 117.078 99.3438 114.203H95.1094V113.188H100.547ZM122.859 111.375V125.297H121.625V111.375H122.859ZM115.469 112.453C117.531 112.469 119.016 114.344 119.016 117.297C119.016 120.25 117.531 122.125 115.469 122.125C113.391 122.125 111.922 120.25 111.922 117.297C111.922 114.344 113.391 112.469 115.469 112.453ZM115.469 113.547C114.078 113.562 113.109 115.031 113.109 117.297C113.109 119.562 114.078 121.031 115.469 121.031C116.859 121.031 117.828 119.562 117.828 117.297C117.828 115.031 116.859 113.562 115.469 113.547ZM129.375 113.625C129.375 115.516 130.812 117.25 132.828 117.938L132.156 118.906C130.617 118.344 129.406 117.195 128.797 115.75C128.203 117.383 126.969 118.672 125.344 119.297L124.688 118.312C126.766 117.531 128.156 115.672 128.172 113.531V112.094H129.375V113.625ZM135.594 111.375V115H137.688V116.031H135.594V119.828H134.375V111.375H135.594ZM131.141 120.188C134 120.188 135.719 121.109 135.719 122.703C135.719 124.328 134 125.234 131.141 125.234C128.281 125.234 126.531 124.328 126.531 122.703C126.531 121.109 128.281 120.188 131.141 120.188ZM131.141 121.172C129.047 121.172 127.75 121.75 127.766 122.703C127.75 123.688 129.047 124.25 131.141 124.266C133.25 124.25 134.531 123.688 134.531 122.703C134.531 121.75 133.25 121.172 131.141 121.172ZM142.609 112.391C144.797 112.391 146.344 113.719 146.344 115.656C146.344 117.594 144.797 118.922 142.609 118.922C140.422 118.922 138.844 117.594 138.859 115.656C138.844 113.719 140.422 112.391 142.609 112.391ZM142.609 113.469C141.125 113.469 140.047 114.359 140.062 115.656C140.047 116.953 141.125 117.844 142.609 117.844C144.078 117.844 145.141 116.953 145.141 115.656C145.141 114.359 144.078 113.469 142.609 113.469ZM149.453 111.375V125.297H148.234V111.375H149.453ZM138.141 121.188C140.703 121.188 144.234 121.172 147.312 120.719L147.406 121.625C144.234 122.219 140.812 122.234 138.312 122.234L138.141 121.188ZM163.312 116.219C162.828 114.766 161.719 113.844 160.109 113.844C158.109 113.844 156.516 115.422 156.516 118.344C156.516 121.266 158.109 122.844 160.203 122.844C162.117 122.844 163.422 121.562 163.453 119.562H160.5V118.328H164.828V119.547C164.828 122.359 162.891 124.156 160.203 124.156C157.188 124.156 155.156 121.922 155.156 118.344C155.156 114.766 157.203 112.531 160.109 112.531C162.5 112.531 164.344 114.031 164.766 116.219H163.312ZM169.953 124H166.438V112.688H170.094C173.391 112.688 175.344 114.812 175.344 118.328C175.344 121.859 173.391 124 169.953 124ZM167.844 122.75H169.859C172.641 122.75 173.969 121.078 173.969 118.328C173.969 115.594 172.641 113.938 170 113.938H167.844V122.75ZM183.078 115.531C182.953 114.422 181.938 113.781 180.578 113.781C179.078 113.781 178.094 114.562 178.094 115.641C178.094 116.828 179.422 117.266 180.281 117.484L181.406 117.797C182.625 118.109 184.609 118.812 184.609 120.922C184.609 122.766 183.125 124.203 180.5 124.203C178.062 124.203 176.547 122.938 176.422 121.062H177.859C177.984 122.328 179.156 122.922 180.5 122.922C182.062 122.922 183.234 122.125 183.234 120.891C183.234 119.797 182.188 119.375 181 119.031L179.609 118.656C177.828 118.141 176.734 117.234 176.734 115.703C176.734 113.797 178.438 112.531 180.625 112.531C182.812 112.531 184.391 113.812 184.453 115.531H183.078ZM193.844 116.25C193.516 114.688 192.172 113.844 190.688 113.844C188.641 113.844 187.047 115.422 187.047 118.344C187.047 121.266 188.641 122.844 190.688 122.844C192.172 122.844 193.5 122 193.844 120.453H195.25C194.844 122.766 192.984 124.156 190.688 124.156C187.781 124.156 185.688 121.922 185.688 118.344C185.688 114.766 187.781 112.531 190.688 112.531C192.969 112.531 194.828 113.906 195.25 116.25H193.844ZM206.172 113.109V114.125H203.656C203.68 115.672 204.797 117.211 206.531 117.875L205.953 118.797C204.594 118.266 203.609 117.227 203.109 116C202.617 117.344 201.625 118.484 200.25 119.062L199.641 118.125C201.375 117.414 202.461 115.781 202.5 114.125H199.938V113.109H202.5V111.5H203.656V113.109H206.172ZM211.344 111.391V119.156H210.172V115.719H208.359V119.078H207.172V111.641H208.359V114.703H210.172V111.391H211.344ZM203.406 119.734V121.344H210.141V119.734H211.344V125.078H202.188V119.734H203.406ZM203.406 124.078H210.141V122.328H203.406V124.078ZM224.391 111.375V125.297H223.172V117.641H220.234V116.625H223.172V111.375H224.391ZM220 112.656V113.672H214.75V116.562H219.391V117.562H214.75V120.922C217.305 120.922 218.93 120.836 220.844 120.5L220.984 121.516C218.969 121.844 217.266 121.938 214.578 121.938H213.516V112.656H220ZM236.953 111.375V117.031H239.203V118.062H236.953V125.266H235.734V111.375H236.953ZM233.359 112.875C233.359 116.812 231.516 120.391 226.984 122.625L226.297 121.656C229.891 119.867 231.844 117.195 232.125 113.906H226.938V112.875H233.359ZM247.781 114.266C247.781 115.969 249.188 117.484 251.234 118.094L250.656 119.062C249.055 118.562 247.805 117.523 247.203 116.188C246.594 117.664 245.305 118.789 243.656 119.328L243.047 118.359C245.109 117.734 246.578 116.125 246.578 114.266V114.016H243.438V113.031H246.578V111.312H247.812V113.031H250.922V114.016H247.781V114.266ZM253.906 111.375V114.906H256V115.938H253.906V119.609H252.688V111.375H253.906ZM253.906 120.25V125.078H245.141V120.25H253.906ZM246.344 121.219V124.078H252.688V121.219H246.344ZM260.109 112.453C261.383 112.461 262.414 113.203 263.016 114.484H266.672V111.375H267.891V125.297H266.672V119.906H263.109C262.523 121.312 261.453 122.125 260.109 122.125C258.062 122.125 256.625 120.25 256.625 117.297C256.625 114.344 258.062 112.469 260.109 112.453ZM260.109 113.547C258.734 113.562 257.797 115.031 257.797 117.297C257.797 119.562 258.734 121.031 260.109 121.031C261.469 121.031 262.422 119.562 262.422 117.297C262.422 115.031 261.469 113.562 260.109 113.547ZM263.375 115.516C263.5 116.055 263.578 116.648 263.578 117.297C263.578 117.867 263.516 118.406 263.422 118.891H266.672V115.516H263.375ZM280.453 111.375V117.109H282.781V118.125H280.453V125.266H279.234V111.375H280.453ZM277.891 113.609V114.625H269.625V113.609H273.203V111.547H274.422V113.609H277.891ZM273.828 115.781C275.797 115.781 277.219 117.094 277.234 118.969C277.219 120.844 275.797 122.156 273.828 122.156C271.844 122.156 270.406 120.844 270.422 118.969C270.406 117.094 271.844 115.781 273.828 115.781ZM273.828 116.812C272.531 116.812 271.578 117.719 271.594 118.969C271.578 120.234 272.531 121.125 273.828 121.109C275.109 121.125 276.047 120.234 276.062 118.969C276.047 117.719 275.109 116.812 273.828 116.812ZM294.266 115.594V116.578H284.75V111.891H285.969V115.594H294.266ZM295.734 118.469V119.469H283.016V118.469H295.734ZM294.344 123.906V124.922H284.672V120.891H285.891V123.906H294.344ZM310.922 111.984V112.875C310.922 113.82 310.922 115.008 310.609 116.578H312.594V117.562H299.875V116.578H309.375C309.688 115.031 309.703 113.891 309.703 112.984H301.484V111.984H310.922ZM310.969 118.969V122.469H302.641V124.109H311.328V125.109H301.406V121.5H309.75V119.953H301.391V118.969H310.969ZM325.922 122.516V123.547H313.203V122.516H318.922V119.891H314.797V115.609H323.109V113.422H314.766V112.406H324.312V116.609H316.016V118.875H324.641V119.891H320.125V122.516H325.922ZM338.031 111.375V118.625H336.812V115.5H333.531V118.062H327.234V112.031H328.453V114.016H332.328V112.031H333.531V114.469H336.812V111.375H338.031ZM338.031 119.297V122.578H330.281V124.094H338.562V125.078H329.062V121.641H336.812V120.281H329.031V119.297H338.031ZM328.453 117.062H332.328V115H328.453V117.062ZM354.281 112.281V113.344C354.281 114.594 354.281 116.141 353.891 118.344H356.031V119.359H352.688V125.266H351.469V119.359H347.906V125.266H346.688V119.359H343.375V118.344H352.641C353.094 116.156 353.094 114.586 353.094 113.344V113.297H345V112.281H354.281ZM369.422 122.453V123.484H356.703V122.453H362.422V119.062H358.203V112.547H367.844V119.062H363.625V122.453H369.422ZM359.406 113.531V118.078H366.656V113.531H359.406ZM374.578 112.391C376.766 112.391 378.312 113.719 378.312 115.656C378.312 117.594 376.766 118.922 374.578 118.922C372.391 118.922 370.812 117.594 370.828 115.656C370.812 113.719 372.391 112.391 374.578 112.391ZM374.578 113.469C373.094 113.469 372.016 114.359 372.031 115.656C372.016 116.953 373.094 117.844 374.578 117.844C376.047 117.844 377.109 116.953 377.109 115.656C377.109 114.359 376.047 113.469 374.578 113.469ZM381.422 111.375V125.297H380.203V111.375H381.422ZM370.109 121.188C372.672 121.188 376.203 121.172 379.281 120.719L379.375 121.625C376.203 122.219 372.781 122.234 370.281 122.234L370.109 121.188ZM397.953 112.062V113.219C397.953 114.516 397.953 115.922 397.578 117.828L396.359 117.719C396.531 116.906 396.625 116.18 396.688 115.516L388.219 115.922L388.047 114.875L396.734 114.594C396.75 114.109 396.75 113.656 396.75 113.219V113.062H388.391V112.062H397.953ZM399.531 118.766V119.766H386.891V118.766H392.047V116.719H393.281V118.766H399.531ZM398.281 124.047V125.047H388.5V120.953H389.734V124.047H398.281ZM405.922 113.078V114.062H401.922V116.812H405.281V117.797H401.922V120.922C403.914 120.898 405.133 120.828 406.641 120.547L406.75 121.547C405.141 121.875 403.828 121.906 401.625 121.922H400.75V113.078H405.922ZM412.094 111.375V125.266H410.906V111.375H412.094ZM409.25 111.719V124.547H408.078V117.672H406.031V116.656H408.078V111.719H409.25ZM420.453 113.422C420.453 115.797 423.172 117.922 425.594 118.375L425.031 119.406C422.938 118.922 420.727 117.43 419.828 115.375C418.93 117.422 416.727 118.914 414.625 119.406L414.062 118.375C416.469 117.906 419.172 115.812 419.172 113.422V112.359H420.453V113.422ZM426.25 122.359V123.375H413.531V122.359H426.25ZM438.109 118.891V119.891H428.5V112.578H437.953V113.609H429.75V115.672H437.656V116.656H429.75V118.891H438.109ZM439.578 122.438V123.453H426.859V122.438H439.578ZM451.656 111.375V118.828H450.438V111.375H451.656ZM443.875 119.531V121.219H450.438V119.531H451.656V125.078H442.656V119.531H443.875ZM443.875 124.078H450.438V122.203H443.875V124.078ZM444.156 112.062C446.266 112.047 447.797 113.344 447.797 115.25C447.797 117.141 446.266 118.438 444.156 118.438C442.047 118.438 440.516 117.141 440.516 115.25C440.516 113.344 442.047 112.047 444.156 112.062ZM444.156 113.094C442.734 113.078 441.703 113.984 441.719 115.25C441.703 116.516 442.734 117.422 444.156 117.422C445.562 117.422 446.594 116.516 446.594 115.25C446.594 113.984 445.562 113.078 444.156 113.094ZM464.969 111.375V125.266H463.75V111.375H464.969ZM455.625 112.75V120.625C457.742 120.617 459.938 120.445 462.266 119.953L462.438 121C459.969 121.516 457.766 121.688 455.547 121.688H454.422V112.75H455.625ZM477.594 111.375V116.875H479.922V117.906H477.594V125.297H476.375V111.375H477.594ZM473.938 112.734V113.75H468.672V120.781C471.188 120.781 472.969 120.664 475.031 120.281L475.188 121.344C473.016 121.734 471.188 121.812 468.547 121.812H467.453V112.734H473.938ZM481.641 124.094C481.094 124.094 480.625 123.641 480.641 123.078C480.625 122.531 481.094 122.078 481.641 122.078C482.188 122.078 482.641 122.531 482.641 123.078C482.641 123.641 482.188 124.094 481.641 124.094Z" fill="white"/>
</svg>
